<?xml version="1.0" standalone="no"?>
<!DOCTYPE svg PUBLIC "-//W3C//DTD SVG 20010904//EN"
 "http://www.w3.org/TR/2001/REC-SVG-20010904/DTD/svg10.dtd">
<svg version="1.0" xmlns="http://www.w3.org/2000/svg"
 width="1195.000000pt" height="1215.000000pt" viewBox="0 0 1195.000000 1215.000000"
 preserveAspectRatio="xMidYMid meet">

<g transform="translate(0.000000,1215.000000) scale(0.100000,-0.100000)"
fill="#000000" stroke="none">
<path d="M5605 11910 c-373 -34 -752 -160 -1095 -362 -47 -28 -116 -69 -155
-92 -109 -64 -346 -220 -499 -329 -422 -300 -693 -610 -905 -1034 -62 -123
-84 -181 -99 -253 -47 -234 -45 -197 -36 -655 10 -498 9 -605 -12 -810 -8 -82
-17 -195 -20 -250 -3 -55 -7 -110 -10 -122 -2 -13 -42 -61 -88 -107 -45 -46
-95 -107 -110 -135 -54 -104 -69 -282 -41 -473 17 -110 42 -166 32 -69 -8 67
7 139 35 168 23 25 63 30 72 11 5 -10 7 -10 12 0 3 6 16 12 29 12 21 0 23 -5
27 -50 3 -43 1 -50 -16 -50 -12 0 -16 -5 -12 -15 3 -9 -1 -35 -9 -58 -7 -23
-17 -65 -21 -93 -6 -47 -4 -52 21 -72 34 -27 48 -28 40 -3 -4 14 2 23 24 34
28 14 29 13 42 -12 7 -14 16 -87 20 -161 10 -161 25 -316 34 -347 5 -14 3 -23
-4 -23 -6 0 -11 9 -11 19 0 10 -6 21 -14 24 -7 3 -17 18 -20 33 -4 15 -20 46
-35 68 -15 23 -45 71 -67 108 -38 66 -62 90 -45 46 9 -24 66 -138 143 -288 24
-47 87 -176 141 -287 54 -111 108 -217 120 -235 13 -18 35 -62 51 -98 103
-232 144 -315 182 -367 46 -61 24 -129 -87 -274 -51 -68 -166 -204 -216 -257
-27 -28 -227 -304 -314 -431 -118 -174 -387 -467 -525 -573 -86 -66 -117 -83
-529 -293 -203 -103 -422 -216 -485 -250 -63 -34 -216 -114 -340 -178 -124
-63 -250 -129 -280 -147 -30 -18 -129 -71 -220 -117 -91 -47 -198 -103 -237
-126 l-73 -41 0 -1448 0 -1448 3165 0 3165 0 -21 52 c-42 106 -355 717 -406
793 -22 33 -57 93 -78 134 -32 65 -35 75 -21 90 13 15 12 16 -16 16 -28 0 -35
7 -81 85 -117 201 -181 303 -266 430 -216 318 -310 462 -491 755 -106 171
-263 415 -349 544 -149 223 -206 312 -296 453 -165 263 -445 674 -548 807
-149 190 -337 465 -402 585 -45 82 -46 86 -35 128 7 23 13 56 15 73 4 40 31
150 41 166 4 7 9 29 11 48 7 78 10 98 15 107 3 5 9 35 13 67 6 47 9 55 19 42
7 -9 18 -15 25 -13 8 2 33 -28 60 -72 25 -42 83 -123 128 -180 45 -58 115
-147 155 -198 40 -52 91 -114 113 -138 22 -25 64 -75 93 -112 177 -224 305
-378 378 -454 103 -107 308 -283 429 -368 88 -62 161 -114 239 -168 61 -42
118 -80 151 -98 17 -9 44 -28 60 -42 17 -14 44 -31 60 -39 37 -17 57 -29 114
-70 24 -18 48 -33 52 -33 5 0 28 -13 51 -28 24 -16 78 -52 120 -80 43 -29 81
-52 85 -52 5 0 41 -25 82 -56 40 -30 96 -67 123 -82 99 -54 107 -59 101 -66
-3 -3 0 -6 8 -6 8 0 48 -25 89 -56 41 -30 91 -63 110 -72 35 -16 91 -51 100
-63 3 -4 16 -9 30 -10 14 -2 25 -11 25 -19 0 -9 11 -16 27 -18 19 -2 28 -10
30 -25 2 -12 17 -31 35 -42 17 -11 33 -27 36 -36 2 -9 19 -18 37 -21 26 -4 34
-1 38 14 6 24 19 23 28 -4 4 -15 1 -25 -11 -34 -10 -8 -15 -20 -12 -29 9 -22
27 -19 27 5 0 26 30 26 37 0 4 -15 14 -20 38 -20 28 0 32 -3 30 -23 -3 -21 1
-23 24 -19 14 3 33 13 42 24 23 25 31 23 67 -18 18 -20 32 -33 32 -29 0 4 7 2
15 -5 12 -10 12 -15 -3 -38 -9 -15 -22 -31 -30 -37 -7 -5 -14 -27 -17 -47 -4
-30 0 -42 21 -63 14 -14 27 -25 29 -25 3 0 34 -29 69 -65 35 -36 71 -65 79
-65 9 0 25 13 37 30 12 16 29 30 39 30 22 0 56 37 66 70 12 40 66 140 76 140
5 0 16 15 24 33 21 43 57 101 78 125 9 10 35 69 56 131 22 61 49 123 60 138
12 14 21 32 21 39 0 8 5 14 10 14 6 0 10 8 10 18 0 24 84 243 112 295 13 22
28 42 33 44 9 3 22 -47 71 -266 19 -83 54 -154 82 -166 12 -5 31 -29 42 -52
12 -25 27 -43 37 -43 9 0 14 -3 10 -6 -16 -16 103 -234 128 -234 6 0 22 -11
34 -24 12 -13 41 -31 64 -41 103 -44 147 -68 160 -88 8 -12 69 -77 136 -145
66 -67 121 -126 121 -131 0 -5 25 -35 55 -66 30 -32 55 -62 55 -66 0 -5 15
-24 33 -43 47 -51 87 -102 87 -112 0 -5 23 -36 51 -69 72 -86 79 -95 79 -101
0 -3 26 -38 58 -78 31 -39 75 -98 96 -131 22 -33 51 -72 64 -87 24 -27 43 -55
60 -93 6 -11 19 -29 31 -39 11 -11 21 -25 21 -33 0 -7 7 -16 16 -20 9 -3 14
-13 11 -24 -3 -10 -2 -19 2 -21 13 -6 41 -70 41 -94 0 -14 7 -41 16 -62 26
-63 36 -117 58 -329 8 -78 18 -152 21 -165 3 -13 14 -95 25 -183 11 -88 25
-186 32 -217 l11 -58 581 0 581 0 1 258 c1 426 -16 1407 -26 1562 -29 405 -94
684 -225 956 -100 210 -184 319 -330 427 -115 85 -207 128 -458 211 -434 144
-897 242 -1192 252 -88 3 -165 10 -172 16 -21 17 -5 55 84 196 80 127 103 168
187 325 65 122 171 382 201 492 7 28 31 113 53 190 22 77 56 203 77 280 20 77
48 176 60 220 121 410 151 538 181 760 30 225 36 320 42 665 l7 345 100 62
c97 59 195 142 195 165 0 6 24 61 54 122 30 61 57 127 61 146 10 48 54 172 68
191 7 9 32 26 56 38 59 31 93 65 84 88 -9 24 -50 59 -98 85 -69 36 -422 118
-514 118 -70 0 -65 -30 -72 487 -7 530 -6 529 -99 906 -62 256 -82 311 -183
512 -128 257 -180 328 -433 585 -142 145 -204 212 -300 319 -67 76 -244 230
-379 331 -161 120 -309 213 -474 295 -470 235 -747 303 -1266 310 -148 2 -310
0 -360 -5z m590 -860 c-15 -24 17 -40 67 -35 27 3 53 7 57 9 13 8 179 -20 194
-32 8 -7 16 -9 19 -6 14 13 90 11 105 -4 13 -13 19 -13 36 -3 17 11 21 11 29
-3 5 -9 20 -16 33 -16 26 0 46 -21 27 -28 -25 -8 -12 -32 18 -32 23 0 30 4 30
20 0 28 24 35 51 17 12 -9 27 -13 35 -10 9 3 12 -4 11 -24 -2 -26 0 -28 43
-31 25 -2 62 2 83 9 32 11 40 10 48 -2 14 -23 10 -36 -12 -42 -31 -8 -13 -27
27 -27 19 0 34 -4 34 -10 0 -13 27 -13 35 0 3 5 -2 21 -11 35 -15 23 -15 25 0
25 9 0 16 -4 16 -10 0 -5 6 -10 14 -10 15 0 30 -45 21 -60 -4 -6 -4 -10 -1
-10 2 0 12 -3 22 -7 14 -5 16 -3 10 12 -7 18 22 55 44 55 16 0 12 -36 -5 -50
-22 -18 -3 -35 23 -21 22 12 32 6 32 -21 0 -12 7 -18 24 -18 13 0 29 -7 36
-15 11 -13 8 -15 -14 -15 -22 0 -26 -4 -26 -30 0 -23 4 -30 20 -30 11 0 20 5
20 10 0 6 8 13 18 17 9 3 27 15 39 26 29 26 49 17 57 -27 8 -40 12 -43 36 -21
16 14 18 14 24 0 7 -20 -15 -29 -49 -21 -14 4 -25 4 -25 2 0 -2 -3 -11 -6 -20
-7 -17 46 -49 74 -44 12 2 18 -5 20 -22 5 -34 30 -60 58 -60 13 0 39 -13 57
-30 37 -33 71 -39 81 -15 6 17 26 20 26 4 0 -22 -30 -41 -58 -35 -15 3 -38 0
-50 -8 l-24 -13 31 -13 c17 -7 40 -10 52 -7 12 3 22 0 26 -9 3 -9 21 -14 54
-14 47 0 49 1 49 27 0 19 3 24 11 16 6 -6 9 -23 7 -39 -3 -26 -7 -29 -41 -32
-40 -3 -42 -22 -3 -22 13 0 29 -7 36 -15 7 -8 23 -15 36 -15 31 0 40 -17 20
-39 -19 -21 -12 -31 21 -31 13 0 23 -4 23 -10 0 -5 10 -10 23 -10 13 0 28 -5
35 -12 18 -18 15 -56 -5 -62 -10 -2 -1 -2 20 1 38 5 52 -9 20 -21 -14 -6 -12
-11 13 -38 19 -20 25 -32 17 -35 -7 -3 -13 -9 -13 -15 0 -16 43 -47 67 -48 29
0 51 -37 25 -43 -12 -3 -11 -5 6 -6 18 -1 21 -4 14 -18 -5 -10 -13 -36 -17
-58 -7 -39 -6 -39 12 -22 29 26 57 23 49 -6 -4 -18 1 -30 20 -48 31 -29 58
-84 49 -100 -6 -8 -9 -8 -15 1 -4 7 -13 9 -19 5 -14 -8 29 -45 52 -45 21 0 35
-20 38 -56 4 -38 -15 -64 -47 -64 -14 0 -24 -6 -24 -14 0 -14 32 -95 51 -129
7 -13 7 -23 -1 -32 -17 -21 -8 -69 15 -75 29 -8 31 -38 3 -49 -18 -7 -28 -4
-45 12 l-23 20 0 -21 c0 -13 6 -22 15 -22 9 0 18 -7 21 -15 7 -18 35 -20 52
-3 9 9 12 9 12 0 0 -7 -4 -12 -9 -12 -5 0 -7 -9 -4 -21 3 -12 0 -25 -7 -29
-19 -12 -5 -39 26 -50 19 -8 25 -16 21 -30 -3 -11 3 -26 13 -35 10 -9 24 -31
31 -48 7 -18 25 -48 41 -68 15 -20 25 -38 22 -41 -2 -3 7 -13 21 -22 14 -9 25
-25 25 -35 0 -37 12 -51 41 -51 31 0 41 -23 14 -34 -8 -3 -15 -16 -15 -30 0
-19 7 -25 38 -32 20 -4 41 -6 45 -5 5 1 7 -13 5 -31 -3 -30 -1 -32 30 -34 43
-2 69 -24 28 -24 -15 0 -25 -4 -21 -10 9 -15 -32 -12 -65 5 -17 9 -40 13 -54
9 -16 -4 -25 -1 -29 10 -9 22 -27 20 -27 -3 0 -16 -11 -21 -67 -29 -38 -6
-101 -13 -142 -17 -52 -4 -78 -10 -86 -22 -7 -9 -19 -14 -27 -10 -9 3 -25 -1
-36 -9 -11 -7 -37 -14 -58 -13 -89 0 -162 -20 -148 -42 3 -5 -1 -9 -9 -9 -8 0
-22 -9 -32 -20 -10 -11 -26 -20 -36 -20 -10 0 -21 -10 -25 -22 -9 -28 -61 -76
-103 -94 -44 -19 -46 -18 -59 12 -8 16 -16 22 -25 17 -6 -4 -16 -8 -22 -8 -5
0 -11 -13 -13 -30 -1 -16 -8 -40 -14 -52 -6 -12 -8 -29 -4 -38 3 -9 -6 -34
-21 -58 -26 -41 -26 -42 -10 -88 10 -26 17 -72 17 -102 0 -31 5 -59 10 -62 6
-4 8 -11 4 -16 -3 -6 1 -18 10 -28 16 -17 12 -19 -76 -31 -51 -7 -96 -17 -100
-23 -4 -6 -33 -14 -65 -18 -32 -4 -68 -10 -80 -14 -19 -6 -23 -4 -23 14 0 11
3 20 8 20 30 -5 82 3 77 11 -4 6 -18 9 -33 8 -25 -3 -26 -1 -23 38 2 43 -18
72 -40 58 -7 -4 -9 -3 -5 4 3 6 2 13 -3 16 -5 3 -12 18 -15 32 -4 14 -14 37
-23 51 -14 21 -18 22 -25 9 -12 -21 -28 -20 -28 2 0 11 12 22 32 30 30 11 31
13 15 30 -10 10 -14 22 -11 25 4 4 -1 9 -10 13 -23 9 -20 29 7 47 21 14 21 16
5 33 -12 14 -14 24 -7 37 13 23 3 37 -26 37 -13 0 -25 5 -27 11 -3 8 -15 9
-37 4 -19 -4 -31 -12 -28 -19 6 -16 -19 -50 -32 -42 -7 5 -7 15 -1 31 14 36
-2 70 -33 73 -15 1 -30 -5 -35 -14 -7 -12 -13 -9 -33 20 -23 34 -49 48 -49 26
0 -18 -31 -10 -66 16 -32 24 -37 26 -60 13 -20 -10 -29 -11 -44 -1 -24 15 -57
16 -62 2 -2 -7 -20 -7 -55 -1 -28 6 -94 10 -145 9 -51 0 -112 2 -134 6 -29 5
-53 3 -79 -8 -21 -9 -54 -16 -75 -16 -21 0 -43 -7 -50 -15 -9 -10 -24 -13 -56
-8 -40 5 -44 4 -44 -16 0 -14 -10 -26 -27 -33 -16 -7 -36 -18 -45 -26 -14 -12
-18 -11 -27 7 -9 17 -8 22 9 31 36 19 24 38 -24 38 -39 0 -54 -7 -115 -54 -41
-32 -79 -54 -89 -52 -11 2 -27 -3 -36 -11 -10 -8 -36 -16 -59 -17 -23 -2 -60
-6 -82 -10 -37 -7 -39 -6 -26 9 14 18 5 22 -23 11 -18 -7 -22 -44 -5 -44 5 0
7 -5 3 -11 -4 -8 -9 -7 -15 2 -6 11 -11 11 -21 1 -13 -13 -48 -17 -48 -4 0 4
5 13 11 19 8 8 6 19 -5 42 -17 32 -40 41 -50 19 -3 -7 -3 11 0 40 4 34 2 52
-5 52 -6 0 -11 -7 -11 -15 0 -18 -19 -20 -21 -2 -2 24 3 42 17 58 32 35 2 75
-38 50 -10 -6 -23 -9 -28 -6 -5 3 -12 -5 -16 -17 -3 -12 -12 -27 -18 -34 -7
-6 -12 -39 -11 -72 0 -50 -3 -61 -15 -58 -8 2 -32 7 -54 11 -34 6 -38 9 -33
31 4 23 2 25 -24 19 -25 -6 -29 -4 -29 17 0 29 -19 59 -27 41 -3 -9 -10 -10
-23 -3 -15 8 -18 17 -13 48 3 20 10 40 15 43 12 8 0 36 -18 43 -8 3 -14 17
-14 31 0 33 -25 43 -50 20 -28 -25 -53 -4 -45 36 5 23 1 34 -19 52 -25 24 -25
24 -6 44 10 12 24 23 31 25 23 8 -1 49 -33 55 -25 5 -29 9 -23 30 3 14 1 31
-6 39 -15 18 5 44 33 44 13 0 18 6 16 16 -4 24 -32 39 -54 29 -20 -9 -30 -12
-54 -14 -11 -1 -8 -7 10 -21 29 -23 23 -26 -15 -6 -15 8 -22 17 -16 21 18 11
12 64 -9 82 -23 20 -18 56 11 89 11 11 19 27 19 36 0 9 7 21 15 28 19 16 19
36 -1 44 -9 4 -13 13 -10 24 4 11 -2 27 -13 39 -15 16 -18 30 -14 62 6 41 6
41 -20 32 -37 -14 -43 3 -10 28 l28 22 -22 15 c-27 19 -28 30 -7 73 15 30 15
33 -2 46 -16 12 -17 16 -5 39 12 21 22 26 52 26 35 0 58 14 45 27 -3 3 -28 6
-55 7 -48 1 -50 2 -56 35 -4 19 -2 38 4 44 6 6 11 21 11 34 0 13 6 33 13 44
10 18 9 23 -16 43 l-28 22 26 12 c32 15 40 10 61 -29 20 -40 10 -87 -22 -101
-19 -9 -24 -18 -22 -37 5 -44 35 -38 48 8 10 40 40 68 55 53 4 -4 5 15 2 41
-4 46 -4 48 17 42 11 -4 39 -9 60 -11 22 -2 44 -8 50 -14 13 -13 46 -13 46 0
0 6 -11 16 -25 22 -28 13 -30 20 -14 50 7 13 7 24 1 30 -7 7 -12 3 -17 -11 -6
-20 -25 -30 -25 -13 0 5 -13 7 -30 4 -43 -6 -42 26 1 35 17 3 33 13 37 22 3 9
11 20 19 24 17 11 18 87 0 87 -7 0 -18 -5 -24 -11 -18 -18 -33 -1 -23 26 13
34 -8 44 -31 14 -11 -15 -14 -28 -8 -33 14 -15 11 -36 -5 -36 -8 0 -24 11 -37
25 -13 13 -34 25 -46 25 -19 0 -23 -6 -23 -29 0 -17 -4 -33 -10 -36 -15 -9
-12 -43 5 -53 10 -5 13 -15 9 -25 -9 -24 -32 -21 -37 6 -4 18 -4 17 -6 -6 0
-16 -5 -25 -11 -22 -11 7 -9 33 3 53 5 7 2 19 -8 29 -17 17 -13 62 7 74 7 4 9
23 5 45 -3 22 -3 33 0 27 2 -7 11 -13 19 -13 8 0 23 -9 34 -20 11 -11 27 -20
36 -20 23 0 14 43 -11 50 -24 6 -32 60 -9 60 8 0 14 -4 14 -10 0 -5 9 -10 20
-10 19 0 20 4 14 49 -5 39 -3 54 10 66 9 9 16 29 15 43 -1 15 0 32 2 37 1 6 0
20 -4 31 -6 17 0 30 21 54 19 20 32 28 36 21 4 -6 18 -11 31 -11 28 0 94 -40
95 -57 0 -18 55 -16 70 2 19 23 2 38 -36 30 -26 -4 -34 -3 -34 9 0 9 11 16 28
18 22 2 28 9 32 38 4 31 8 35 36 35 18 1 39 7 48 14 15 13 13 16 -20 36 -23
14 -32 25 -25 29 6 4 11 2 11 -3 0 -19 21 -12 55 18 32 28 33 29 12 35 -12 3
-32 6 -44 6 -14 0 -23 6 -23 15 0 8 -4 15 -10 15 -5 0 -10 5 -10 10 0 6 6 10
13 10 9 0 12 9 9 29 -4 26 -2 29 17 24 12 -3 21 -11 21 -18 0 -7 13 -24 28
-37 15 -13 31 -31 35 -40 6 -18 53 -35 64 -24 3 3 5 18 4 33 -7 135 -8 128 17
126 32 -4 27 14 -7 22 -23 5 -28 10 -24 26 3 11 16 25 29 30 28 10 30 21 8 40
-14 11 -18 11 -29 -4 -14 -19 -37 -22 -66 -6 -15 7 -24 7 -35 -2 -11 -9 -14
-8 -14 4 0 34 59 42 61 9 0 -11 2 -12 6 -4 2 6 11 12 19 12 8 0 26 7 39 16 19
12 25 25 25 53 1 29 3 33 11 19 18 -31 107 -14 95 17 -3 8 -1 17 4 20 6 4 10
1 10 -4 0 -19 43 -12 67 11 19 18 28 20 41 12 10 -7 24 -8 34 -3 10 5 27 14
38 19 14 7 26 7 39 -2 15 -9 29 -9 58 0 74 21 195 35 203 22 5 -9 22 -9 66 -1
32 6 70 12 84 15 14 2 29 4 33 5 5 0 5 -4 2 -9z m-795 -100 c0 -5 -7 -10 -15
-10 -8 0 -15 5 -15 10 0 6 7 10 15 10 8 0 15 -4 15 -10z m1531 -63 c-8 -8 -11
-3 -11 19 1 25 2 27 11 11 8 -14 8 -22 0 -30z m-1581 23 c0 -5 -4 -10 -10 -10
-5 0 -10 5 -10 10 0 6 5 10 10 10 6 0 10 -4 10 -10z m2080 -144 c0 -11 -19
-15 -25 -6 -3 5 1 10 9 10 9 0 16 -2 16 -4z m-2086 -39 c13 -21 -5 -37 -41
-37 -27 0 -29 16 -6 42 19 21 32 20 47 -5z m-314 -117 c0 -5 -11 -10 -25 -10
-14 0 -25 5 -25 10 0 6 11 10 25 10 14 0 25 -4 25 -10z m2628 -39 c2 -6 -11
-8 -35 -4 -47 7 -43 4 -36 31 l5 22 32 -19 c17 -11 32 -24 34 -30z m-2591 -79
c-23 -25 -21 -34 8 -62 31 -29 31 -38 1 -46 -32 -8 -51 3 -37 20 15 17 -22 51
-45 42 -15 -6 -15 -4 -3 11 25 32 54 52 73 53 18 0 18 -1 3 -18z m2903 -176
c0 -11 -19 -15 -25 -6 -3 5 1 10 9 10 9 0 16 -2 16 -4z m-3110 -136 c0 -5 -4
-10 -9 -10 -6 0 -13 5 -16 10 -3 6 1 10 9 10 9 0 16 -4 16 -10z m-510 -100 c0
-5 -2 -10 -4 -10 -3 0 -8 5 -11 10 -3 6 -1 10 4 10 6 0 11 -4 11 -10z m570
-194 c0 -2 -7 -6 -15 -10 -8 -3 -15 -1 -15 4 0 6 7 10 15 10 8 0 15 -2 15 -4z
m-50 -14 c0 -13 -12 -22 -22 -16 -10 6 -1 24 13 24 5 0 9 -4 9 -8z m-335 -72
c0 -7 -6 -15 -12 -17 -8 -3 -13 4 -13 17 0 13 5 20 13 18 6 -3 12 -11 12 -18z
m345 -11 c0 -10 -7 -19 -15 -19 -15 0 -21 31 -9 43 11 10 24 -3 24 -24z m-173
-15 c-3 -3 -12 -4 -19 -1 -8 3 -5 6 6 6 11 1 17 -2 13 -5z m-67 -65 c0 -5 -7
-9 -15 -9 -15 0 -20 12 -9 23 8 8 24 -1 24 -14z m70 -68 c0 -5 -6 -11 -14 -14
-8 -3 -20 -18 -28 -33 -7 -15 -19 -29 -25 -32 -16 -5 -17 30 -2 45 11 11 14
26 18 77 1 17 4 16 26 -8 14 -15 25 -31 25 -35z m-276 8 c-3 -5 -10 -7 -15 -3
-5 3 -7 10 -3 15 3 5 10 7 15 3 5 -3 7 -10 3 -15z m-34 -65 c0 -13 -4 -24 -10
-24 -5 0 -10 14 -10 31 0 17 4 28 10 24 6 -3 10 -17 10 -31z m184 -44 c-10 -4
-23 -5 -28 -2 -13 7 16 21 32 14 13 -4 12 -7 -4 -12z m160 -63 c-3 -9 -10 -17
-15 -17 -14 0 -22 27 -15 47 6 15 8 15 22 2 8 -9 12 -23 8 -32z m-374 24 c0
-5 -7 -14 -15 -21 -13 -10 -15 -9 -15 9 0 12 6 21 15 21 8 0 15 -4 15 -9z
m281 -6 c0 -5 -9 -11 -21 -13 -20 -3 -27 8 -13 22 10 9 34 3 34 -9z m-56 -44
c3 -7 3 -16 0 -19 -3 -3 -5 0 -5 6 0 7 -12 12 -26 12 -14 0 -23 4 -19 9 8 14
44 9 50 -8z m135 -42 c0 -28 -4 -39 -15 -39 -8 0 -15 3 -15 8 0 4 -4 23 -9 43
-8 34 -7 35 15 31 20 -4 24 -10 24 -43z m-1289 -132 c-13 -13 -26 -3 -16 12 3
6 11 8 17 5 6 -4 6 -10 -1 -17z m1249 -2 c0 -8 -7 -15 -15 -15 -8 0 -15 -9
-15 -20 0 -11 -4 -20 -10 -20 -14 0 -13 43 2 58 17 17 38 15 38 -3z m-380 -30
c0 -16 -27 -32 -37 -22 -3 4 -3 13 0 22 8 20 37 20 37 0z m489 -65 c3 0 8 -29
9 -64 1 -57 -1 -66 -18 -71 -29 -9 -40 2 -40 38 0 64 12 108 27 103 8 -4 18
-6 22 -6z m-269 -50 c0 -5 -4 -10 -9 -10 -6 0 -13 5 -16 10 -3 6 1 10 9 10 9
0 16 -4 16 -10z m3940 1 c0 -12 -39 -25 -47 -17 -4 3 1 6 10 6 10 0 17 5 17
10 0 6 5 10 10 10 6 0 10 -4 10 -9z m-4120 -96 c0 -8 -7 -15 -15 -15 -9 0 -12
6 -9 15 4 8 10 15 15 15 5 0 9 -7 9 -15z m263 -10 c7 -17 -8 -29 -28 -21 -17
6 -9 36 10 36 7 0 15 -7 18 -15z m-354 -12 c0 -11 -3 -13 -6 -5 -8 20 -25 13
-18 -8 3 -11 2 -20 -3 -20 -15 0 -22 26 -9 39 17 17 37 13 36 -6z m179 -33 c0
-22 -3 -40 -9 -40 -5 0 -9 18 -9 40 0 22 4 40 9 40 5 0 9 -18 9 -40z m342 16
c0 -23 -16 -36 -46 -36 -21 0 -17 19 9 41 29 25 37 24 37 -5z m-388 -71 c-12
-22 -27 -2 -18 22 5 12 10 13 17 6 7 -7 8 -17 1 -28z m105 8 c-4 -3 1 -12 11
-19 14 -10 15 -15 5 -25 -7 -7 -13 -23 -13 -36 0 -13 -4 -23 -9 -23 -13 0 -19
94 -7 102 14 9 22 10 13 1z m-277 -19 c0 -8 -4 -12 -10 -9 -5 3 -10 10 -10 16
0 5 5 9 10 9 6 0 10 -7 10 -16z m24 -59 c3 -8 1 -15 -4 -15 -6 0 -10 7 -10 15
0 8 2 15 4 15 2 0 6 -7 10 -15z m196 5 c0 -5 -4 -10 -10 -10 -5 0 -10 5 -10
10 0 6 5 10 10 10 6 0 10 -4 10 -10z m465 -39 c3 -5 1 -12 -5 -16 -5 -3 -10 1
-10 9 0 18 6 21 15 7z m-785 -45 c-29 -27 -36 -26 -20 3 6 12 18 21 28 21 13
0 12 -5 -8 -24z m251 -53 c-9 -16 -10 -14 -11 12 0 21 3 26 11 18 8 -8 8 -16
0 -30z m194 27 c3 -5 1 -10 -4 -10 -6 0 -11 5 -11 10 0 6 2 10 4 10 3 0 8 -4
11 -10z m325 0 c0 -5 -4 -12 -10 -15 -5 -3 -10 -15 -10 -26 0 -35 -34 -19 -36
16 -1 26 2 30 27 32 16 1 29 -2 29 -7z m-410 -19 c0 -6 -4 -13 -10 -16 -5 -3
-10 1 -10 9 0 9 5 16 10 16 6 0 10 -4 10 -9z m235 -21 c3 -5 -1 -10 -10 -10
-9 0 -13 5 -10 10 3 6 8 10 10 10 2 0 7 -4 10 -10z m-14 -40 c13 -8 19 -21 19
-48 0 -50 10 -84 24 -79 14 5 21 47 7 47 -6 0 -11 7 -11 15 0 23 16 18 34 -10
23 -35 21 -69 -4 -62 -10 3 -21 0 -23 -6 -3 -9 -11 -9 -30 0 -22 10 -27 19
-27 47 0 19 -4 38 -10 41 -10 6 -14 65 -4 65 3 0 14 -5 25 -10z m-231 -21 c0
-11 -4 -17 -10 -14 -5 3 -10 13 -10 21 0 8 5 14 10 14 6 0 10 -9 10 -21z m-3
-61 c-3 -8 -6 -5 -6 6 -1 11 2 17 5 13 3 -3 4 -12 1 -19z m83 -29 c0 -5 -4 -9
-10 -9 -5 0 -10 7 -10 16 0 8 5 12 10 9 6 -3 10 -10 10 -16z m123 -31 c-10
-21 -12 -21 -18 -5 -10 25 2 54 17 39 8 -8 8 -18 1 -34z m-363 8 c0 -14 -4
-27 -9 -31 -12 -7 -25 31 -16 45 11 18 25 10 25 -14z m515 -36 c3 -5 1 -10 -4
-10 -6 0 -11 5 -11 10 0 6 2 10 4 10 3 0 8 -4 11 -10z m-160 -30 c3 -6 -1 -7
-9 -4 -18 7 -21 14 -7 14 6 0 13 -4 16 -10z m4180 -11 c15 -15 -10 -11 -41 7
l-29 16 30 -7 c17 -3 34 -11 40 -16z m-4151 -25 c4 -10 1 -14 -6 -12 -15 5
-23 28 -10 28 5 0 13 -7 16 -16z m-68 -25 l39 -31 -52 7 -51 7 -7 -33 -7 -33
-13 25 c-12 20 -11 25 1 29 9 3 15 8 15 10 -2 18 14 50 24 50 7 0 30 -14 51
-31z m314 -45 c0 -13 -4 -24 -10 -24 -5 0 -10 9 -10 19 0 11 -4 23 -10 26 -5
3 -10 16 -10 28 l1 22 19 -24 c11 -13 20 -34 20 -47z m47 34 c-3 -8 -6 -5 -6
6 -1 11 2 17 5 13 3 -3 4 -12 1 -19z m51 -1 c2 -10 -3 -17 -12 -17 -10 0 -16
9 -16 21 0 24 23 21 28 -4z m-2106 -26 c2 -13 -3 -26 -9 -28 -9 -3 -13 7 -13
33 0 41 17 37 22 -5z m1815 13 c-3 -3 -12 -4 -19 -1 -8 3 -5 6 6 6 11 1 17 -2
13 -5z m270 -69 c18 -14 30 -105 14 -105 -6 0 -16 12 -22 28 -10 25 -11 26
-24 9 -12 -17 -14 -16 -35 13 -20 28 -20 30 -3 30 11 0 24 -5 30 -11 7 -7 12
-4 16 10 3 14 0 21 -9 21 -21 0 -28 26 -12 44 11 12 14 12 23 -7 5 -12 15 -26
22 -32z m-128 -7 c1 -5 -5 -8 -13 -8 -9 0 -12 8 -8 27 5 25 6 25 13 8 4 -11 8
-23 8 -27z m-122 12 c3 -11 13 -20 23 -20 17 0 34 -40 29 -66 -6 -35 4 -61 31
-79 17 -11 33 -29 36 -40 4 -11 17 -30 30 -43 17 -17 24 -40 29 -87 4 -36 14
-70 21 -76 8 -6 14 -18 14 -25 0 -8 5 -14 10 -14 16 0 12 -30 -5 -36 -8 -4
-12 -10 -9 -15 3 -5 9 -7 14 -4 5 3 18 1 29 -4 16 -9 19 -21 18 -71 -2 -50 -5
-60 -19 -60 -10 0 -18 -5 -18 -11 0 -6 6 -9 14 -6 14 6 32 -21 21 -31 -3 -3
-32 -5 -65 -5 -33 1 -60 -3 -60 -8 0 -5 -7 -9 -15 -9 -22 0 -18 21 5 27 26 7
25 17 -2 31 -50 24 -69 25 -75 3 -3 -12 -10 -21 -15 -21 -6 0 -8 9 -5 19 2 10
1 24 -3 31 -11 18 -44 4 -36 -15 7 -19 1 -19 -29 1 -14 9 -23 20 -20 24 7 11
-29 40 -41 32 -6 -4 -13 -15 -17 -24 -5 -14 -1 -18 21 -19 23 -2 24 -2 5 -6
-13 -2 -33 3 -45 11 -12 9 -18 16 -13 16 5 0 -1 7 -13 16 -12 8 -22 22 -22 30
0 8 -10 14 -25 14 l-26 0 20 22 c18 19 24 20 45 9 39 -21 61 3 30 33 -19 19
-29 163 -13 202 8 22 6 29 -11 41 -21 15 -27 57 -9 68 6 4 17 -2 25 -14 17
-24 44 -28 44 -6 0 9 6 12 15 9 20 -8 19 0 -5 66 -24 65 -23 60 -5 60 8 0 15
7 15 16 0 9 5 14 12 12 18 -6 21 -28 4 -28 -27 0 -17 -24 20 -47 45 -29 54
-29 54 2 0 15 -6 25 -14 25 -14 0 -26 29 -26 68 0 27 20 29 27 2z m-222 -50
c9 0 15 -9 14 -22 l0 -23 -16 23 c-8 12 -22 22 -29 22 -15 0 -18 12 -7 24 4 3
11 0 15 -9 5 -8 16 -15 23 -15z m108 -52 c5 -54 0 -58 -26 -22 -12 16 -17 34
-13 49 3 13 1 27 -4 30 -6 4 -7 11 -4 17 12 20 42 -27 47 -74z m1474 46 c-3
-3 -12 -4 -19 -1 -8 3 -5 6 6 6 11 1 17 -2 13 -5z m-1209 -53 c3 -8 -1 -12 -9
-9 -7 2 -15 10 -17 17 -3 8 1 12 9 9 7 -2 15 -10 17 -17z m1052 -3 c0 -19 -2
-20 -10 -8 -13 19 -13 30 0 30 6 0 10 -10 10 -22z m-883 -63 c3 -32 -8 -47
-21 -26 -7 11 5 74 12 66 3 -3 7 -21 9 -40z m1010 39 c-3 -3 -12 -4 -19 -1 -8
3 -5 6 6 6 11 1 17 -2 13 -5z m-37 -14 c0 -5 -5 -10 -11 -10 -5 0 -7 5 -4 10
3 6 8 10 11 10 2 0 4 -4 4 -10z m-1050 -37 c0 -13 -3 -13 -15 -3 -8 7 -15 16
-15 21 0 5 7 6 15 3 8 -4 15 -13 15 -21z m385 7 c3 -5 2 -10 -4 -10 -5 0 -13
5 -16 10 -3 6 -2 10 4 10 5 0 13 -4 16 -10z m195 -48 c0 -13 -23 -32 -39 -32
-11 0 -10 4 4 20 19 21 35 26 35 12z m-320 -22 c0 -12 7 -31 16 -44 12 -19 12
-26 3 -32 -8 -4 -18 1 -27 14 -20 31 -42 28 -42 -5 0 -32 -5 -28 -14 10 -5 20
-3 27 4 22 7 -5 10 0 9 11 -5 26 8 44 32 44 12 0 19 -7 19 -20z m-260 0 c0 -5
-5 -10 -11 -10 -5 0 -7 5 -4 10 3 6 8 10 11 10 2 0 4 -4 4 -10z m380 -5 c0 -8
-4 -15 -10 -15 -5 0 -10 7 -10 15 0 8 5 15 10 15 6 0 10 -7 10 -15z m-400 -61
c0 -8 -5 -12 -10 -9 -6 4 -8 11 -5 16 9 14 15 11 15 -7z m-459 -19 c0 -5 -9
-11 -21 -13 -20 -3 -27 8 -13 22 10 9 34 3 34 -9z m1490 -28 c-13 -13 -26 -3
-16 12 3 6 11 8 17 5 6 -4 6 -10 -1 -17z m-1601 3 c0 -5 -4 -10 -10 -10 -5 0
-10 5 -10 10 0 6 5 10 10 10 6 0 10 -4 10 -10z m1550 -14 c0 -3 -4 -8 -10 -11
-5 -3 -10 -1 -10 4 0 6 5 11 10 11 6 0 10 -2 10 -4z m3507 -26 c42 -25 48 -52
34 -158 -22 -176 -103 -359 -189 -429 -66 -55 -145 -103 -168 -103 -33 0 -57
79 -69 225 -6 79 4 135 24 135 6 0 19 -10 31 -22 28 -30 106 -34 121 -6 6 10
7 29 3 41 -9 30 -60 83 -95 97 -16 7 -29 21 -31 33 -2 12 -15 28 -30 35 -33
16 -38 51 -8 59 22 6 28 39 8 45 -6 2 -8 10 -4 16 9 15 88 16 103 1 9 -9 19
-6 41 10 45 32 72 40 137 40 43 1 69 -5 92 -19z m-4945 -52 c-7 -7 -8 -17 -1
-30 8 -15 6 -18 -11 -18 -19 0 -21 4 -15 33 10 43 15 51 28 38 8 -8 8 -14 -1
-23z m1321 20 c3 -8 -5 -14 -19 -14 -25 -2 -33 11 -11 19 20 9 25 8 30 -5z
m-1418 -38 c3 -5 3 -15 -1 -21 -6 -11 -23 6 -24 24 0 10 18 9 25 -3z m3893
-17 c5 -17 -26 -29 -40 -15 -6 6 -7 15 -3 22 9 14 37 9 43 -7z m-5095 -43 c25
0 43 -7 54 -20 10 -11 28 -20 40 -20 13 0 23 -6 23 -14 0 -15 73 -78 103 -89
13 -5 16 -13 11 -31 -4 -19 -1 -27 16 -36 15 -8 20 -18 17 -32 -8 -30 2 -48
28 -48 21 0 23 -4 20 -37 -4 -52 -14 -73 -35 -73 -10 0 -25 11 -34 25 -9 14
-23 25 -31 25 -8 0 -25 16 -37 35 -17 25 -28 33 -42 29 -12 -4 -16 -2 -12 5 4
7 -1 11 -13 11 -11 0 -33 14 -49 30 -17 17 -39 30 -49 30 -10 0 -48 27 -83 61
-36 33 -87 71 -115 84 -64 30 -85 48 -85 69 0 14 6 16 28 12 15 -3 40 -2 56 2
17 5 54 3 90 -5 34 -7 78 -13 99 -13z m4865 -83 c7 3 12 -4 12 -15 0 -16 -5
-19 -22 -15 -13 3 -29 10 -35 16 -18 13 -5 29 15 18 9 -4 23 -6 30 -4z m-1928
-22 c0 -25 -14 -34 -24 -16 -8 12 3 41 15 41 5 0 9 -11 9 -25z m296 -30 c1
-16 4 -40 8 -51 5 -18 0 -26 -29 -44 -23 -14 -42 -19 -53 -14 -9 4 -20 6 -24
6 -19 -4 4 58 42 116 22 33 55 25 56 -13z m-1797 9 c11 -10 -8 -10 -49 2 l-45
13 45 -5 c25 -4 47 -8 49 -10z m57 -21 c-8 -8 -36 5 -36 17 0 7 6 7 21 0 11
-7 18 -14 15 -17z m102 -20 c-10 -2 -26 -2 -35 0 -10 3 -2 5 17 5 19 0 27 -2
18 -5z m141 -15 c11 -10 14 -10 18 0 5 14 43 17 43 3 0 -5 -8 -12 -17 -15 -10
-2 12 -2 48 1 57 4 67 3 73 -12 6 -16 0 -17 -66 -11 -85 8 -150 25 -142 37 8
13 28 11 43 -3z m671 6 c0 -3 -9 -17 -20 -31 -11 -14 -20 -31 -20 -38 0 -12
-21 -25 -41 -25 -20 0 -7 36 23 67 28 29 58 43 58 27z m2060 -35 c80 -21 76
-19 61 -29 -11 -6 -9 -11 8 -21 11 -8 21 -18 21 -24 0 -5 10 -26 22 -45 12
-19 21 -43 19 -52 -1 -10 4 -18 12 -18 18 0 27 -21 27 -65 0 -19 6 -38 13 -42
8 -4 17 -25 20 -45 3 -20 16 -59 30 -87 16 -34 20 -54 14 -60 -13 -13 50 -141
69 -141 8 0 14 -10 14 -22 0 -36 66 -153 84 -150 9 2 16 -4 16 -14 0 -15 13
-35 76 -111 31 -38 45 -64 63 -120 12 -36 12 -45 0 -59 -15 -18 -38 -130 -42
-200 -2 -41 -16 -67 -49 -92 -10 -7 -18 -17 -18 -22 0 -13 -71 -80 -86 -80 -7
0 -30 -11 -50 -25 -20 -14 -50 -25 -66 -25 -16 0 -39 -5 -50 -11 -15 -8 -22
-8 -28 1 -5 8 -21 10 -48 5 -34 -5 -44 -3 -73 22 -46 38 -78 55 -90 47 -12 -7
-49 24 -49 41 0 7 -7 15 -15 19 -8 3 -15 14 -15 23 0 20 -38 58 -48 48 -4 -3
0 -10 8 -15 8 -5 12 -12 8 -15 -11 -12 -47 5 -53 26 -7 20 -25 27 -25 8 0 -12
-37 -3 -58 14 -8 6 -24 12 -35 14 -68 10 -171 35 -197 48 -16 8 -40 15 -55 15
-14 0 -25 5 -25 10 0 6 -7 10 -15 10 -8 0 -15 5 -15 10 0 6 -11 16 -25 22 -14
6 -25 17 -25 25 0 7 -5 13 -10 13 -17 0 -32 50 -20 65 7 9 7 27 1 56 -10 43
-7 64 8 54 5 -2 19 7 31 20 22 23 25 24 46 10 29 -19 44 -19 44 0 0 8 5 15 10
15 6 0 10 -7 10 -15 0 -10 11 -15 35 -15 24 0 35 5 35 14 0 28 19 26 36 -3 10
-17 27 -31 38 -33 13 -2 29 -20 43 -49 12 -26 29 -49 37 -52 23 -9 46 2 46 22
0 9 6 25 14 36 12 18 11 25 -5 55 -10 19 -23 45 -28 58 -6 12 -15 22 -21 22
-5 0 -10 11 -10 25 0 22 -4 25 -33 25 -18 0 -44 8 -57 18 -14 9 -36 17 -50 17
-15 0 -24 5 -23 13 4 15 0 15 -44 -3 -27 -11 -39 -12 -49 -4 -22 18 -171 -8
-198 -35 -11 -12 -32 -22 -46 -23 -13 -1 -33 -14 -43 -28 -10 -14 -23 -23 -28
-19 -5 3 -9 -4 -9 -16 0 -12 -9 -24 -23 -29 -13 -5 -55 -44 -93 -88 -38 -43
-71 -80 -74 -83 -3 -3 -18 -24 -34 -47 -16 -24 -32 -43 -36 -43 -4 0 -11 -11
-14 -24 -3 -13 -19 -37 -36 -53 -16 -15 -30 -33 -30 -40 0 -6 -9 -14 -19 -18
-11 -3 -25 -21 -31 -39 -6 -18 -26 -51 -46 -72 -19 -21 -42 -54 -51 -72 -8
-18 -24 -37 -34 -43 -11 -5 -19 -16 -19 -25 0 -8 -11 -26 -25 -40 -14 -13 -24
-28 -23 -32 4 -13 -23 -52 -36 -52 -7 0 -23 -28 -36 -62 -12 -35 -26 -67 -31
-72 -5 -6 -9 -20 -9 -33 0 -15 -4 -21 -15 -17 -12 5 -12 0 -5 -27 7 -23 6 -45
-1 -67 -10 -31 -8 -80 7 -164 10 -60 21 -44 16 23 -4 58 9 150 28 194 52 124
109 216 190 309 31 34 50 58 115 136 27 33 56 60 63 60 7 0 11 4 7 10 -3 5 17
35 45 67 63 72 70 81 70 88 0 19 93 125 109 125 6 0 14 7 17 15 9 22 54 19 54
-3 0 -10 12 -25 28 -33 34 -17 44 -31 30 -40 -6 -4 -7 -12 -2 -20 5 -8 7 -22
5 -32 -2 -16 2 -18 28 -12 31 7 61 -10 61 -34 0 -6 6 -11 14 -11 7 0 19 -7 27
-16 9 -11 22 -14 41 -10 21 4 28 2 28 -9 0 -8 -4 -15 -10 -15 -16 0 -12 -26 6
-41 15 -12 16 -11 10 9 -6 18 -4 22 13 22 12 0 21 -6 21 -14 0 -21 28 -28 33
-8 4 13 5 11 6 -5 0 -12 -5 -24 -11 -26 -10 -4 -9 -8 2 -16 16 -11 44 5 35 19
-9 15 6 39 21 33 9 -3 13 -16 12 -32 -2 -20 1 -25 15 -23 12 2 17 -4 17 -23 0
-19 6 -29 20 -32 11 -3 23 -15 26 -27 4 -18 13 -21 65 -23 70 -2 78 -6 61 -33
-11 -18 -9 -20 17 -20 39 0 61 -9 61 -26 0 -8 10 -14 23 -14 17 0 26 -9 36
-36 12 -32 11 -37 -7 -50 -13 -9 -18 -21 -14 -39 5 -30 20 -41 34 -27 13 13
50 -6 94 -48 28 -26 33 -28 37 -13 3 12 5 8 6 -9 1 -25 -1 -26 -30 -18 -34 10
-89 3 -89 -11 0 -5 -12 -9 -26 -9 -19 0 -28 7 -37 29 -11 29 -12 29 -64 24
-37 -3 -60 0 -76 9 -12 9 -37 13 -57 11 -19 -2 -45 -5 -57 -6 -12 -1 -24 -5
-28 -9 -4 -3 -23 -4 -42 -1 -27 5 -38 2 -45 -10 -11 -21 -44 -22 -51 -3 -5 13
-57 11 -57 -3 0 -3 -48 -6 -106 -6 -105 0 -105 0 -122 28 -16 27 -16 29 1 38
9 6 15 14 12 19 -8 12 -41 1 -61 -21 -17 -19 -17 -19 -32 2 -13 19 -16 20 -24
5 -5 -9 -20 -16 -33 -16 -20 0 -25 -5 -25 -24 0 -13 -7 -29 -15 -36 -8 -7 -15
-19 -15 -26 0 -8 -4 -14 -10 -14 -5 0 -10 7 -10 15 0 8 -5 15 -11 15 -14 0
-48 -41 -49 -58 0 -7 -18 -21 -41 -31 -23 -11 -36 -22 -30 -25 20 -13 11 -24
-24 -30 -24 -5 -35 -12 -35 -24 0 -19 -41 -62 -59 -62 -5 0 -15 -9 -21 -21
-15 -27 2 -48 34 -42 19 4 25 0 30 -21 4 -16 13 -26 24 -26 20 0 52 -31 72
-68 6 -13 26 -30 43 -37 18 -7 46 -32 62 -54 19 -26 38 -41 52 -41 19 0 22 -4
17 -29 -6 -27 -3 -30 22 -33 25 -3 30 -9 37 -45 8 -40 9 -42 38 -36 28 5 30 4
24 -19 -6 -24 -5 -25 55 -25 43 -1 67 -6 80 -18 10 -9 23 -14 28 -11 5 3 40
-6 78 -20 38 -14 83 -27 99 -28 17 -2 39 -7 49 -11 17 -7 18 -5 12 18 -5 20
-3 27 8 27 8 0 18 -4 21 -10 11 -18 23 -11 34 21 10 28 14 31 38 25 96 -24
127 -25 145 -9 19 17 20 15 22 -27 1 -30 34 -40 52 -15 10 13 17 14 33 6 16
-9 21 -8 26 9 8 25 16 25 49 -1 24 -19 31 -20 51 -9 13 7 26 22 29 34 6 18 8
16 24 -18 l17 -39 13 27 c16 36 35 23 26 -17 l-6 -32 21 19 c19 17 21 17 21 3
0 -10 7 -17 15 -17 19 0 20 24 1 39 -13 11 -11 51 3 51 9 0 45 -49 54 -72 3
-9 1 -19 -6 -22 -7 -3 2 -2 18 1 17 3 32 10 33 15 5 11 32 10 32 -2 0 -5 22
-9 48 -9 39 1 50 6 58 23 10 22 50 34 65 19 16 -16 -2 -74 -27 -85 -31 -14
-31 -32 0 -26 23 5 24 2 26 -56 1 -34 1 -78 1 -99 -1 -49 16 -45 35 8 19 54
17 71 -5 87 -19 14 -19 14 0 26 17 11 21 9 29 -13 8 -20 15 -25 30 -20 17 5
20 2 20 -22 0 -16 5 -34 11 -40 8 -8 5 -13 -10 -18 -28 -9 -30 -55 -2 -55 18
0 19 -2 5 -27 -19 -39 -18 -50 11 -69 32 -21 65 -10 65 22 0 13 -4 24 -10 24
-20 0 -9 51 15 75 17 15 22 26 15 30 -8 5 -6 13 6 26 18 20 13 67 -9 81 -9 6
-6 13 9 26 26 21 26 88 1 107 -12 9 -17 27 -17 63 0 28 -4 54 -10 57 -15 9
-12 36 6 57 14 15 15 20 4 33 -11 13 -11 16 1 13 8 -2 14 5 15 17 0 11 6 37
13 58 7 20 13 75 14 122 2 76 4 85 22 87 17 3 20 11 20 57 0 33 -5 56 -12 58
-18 6 -27 -37 -12 -63 15 -30 5 -42 -22 -26 -16 10 -20 10 -25 -1 -3 -8 -4
-18 -3 -23 6 -21 -13 -55 -28 -50 -8 3 -21 6 -29 6 -8 0 -14 5 -14 10 0 6 7
10 15 10 17 0 20 26 4 35 -11 8 -3 84 11 99 5 5 20 9 35 9 25 0 26 2 20 37 -4
23 -2 41 4 45 6 3 11 -1 11 -9 0 -9 7 -16 16 -16 12 0 14 7 9 31 -9 38 11 89
35 89 13 0 19 12 23 52 4 28 3 56 -2 62 -5 6 -11 26 -15 44 -3 17 -9 46 -12
62 -5 23 -3 30 10 30 20 0 21 14 1 34 -8 8 -15 19 -15 25 0 6 7 11 15 11 19 0
19 24 1 58 -8 15 -17 35 -20 45 -5 15 -12 17 -37 12 -51 -11 -64 30 -31 102
16 37 18 39 35 22 13 -12 16 -24 12 -42 -6 -22 -3 -27 18 -32 30 -8 39 -27 31
-60 -4 -16 1 -30 16 -45 17 -17 21 -29 16 -52 -4 -23 0 -34 19 -52 18 -17 26
-38 31 -82 4 -32 13 -65 21 -72 7 -7 13 -33 13 -57 0 -24 5 -55 11 -69 9 -20
9 -29 -1 -41 -14 -17 -7 -45 12 -45 24 1 46 45 56 111 5 35 7 70 4 77 -2 7 1
24 8 38 10 18 11 30 2 49 -6 14 -9 38 -6 53 3 16 -1 45 -10 66 -9 21 -16 46
-16 56 0 10 -7 30 -15 46 -8 16 -12 38 -9 50 3 12 0 25 -6 29 -6 4 -15 17 -21
28 -5 12 -15 30 -21 40 -11 15 -10 20 6 32 18 14 18 15 -3 47 -11 18 -21 27
-21 21 0 -27 -18 -11 -24 22 -4 19 -20 49 -36 67 -17 18 -30 43 -30 55 0 16
-8 27 -25 33 -14 5 -25 17 -25 25 0 9 -7 18 -15 21 -9 4 -13 14 -9 28 3 15 -3
28 -21 44 -14 12 -29 22 -33 22 -16 0 -44 44 -65 102 -14 40 -29 63 -43 68
-22 9 -34 36 -34 82 0 34 9 39 73 44 29 2 73 7 100 10 30 4 53 2 61 -5 8 -7
38 -13 68 -15 29 -2 61 -7 71 -11 10 -4 23 -2 31 5 12 9 20 8 40 -5 27 -18 42
-13 64 17 17 24 66 16 99 -15 21 -19 23 -19 29 -2 5 11 1 22 -9 30 -10 7 -17
17 -17 24 0 16 27 13 34 -4 9 -24 39 -19 33 5 -4 16 0 20 22 20 22 0 27 -4 27
-22 -1 -19 5 -24 31 -26 28 -3 32 0 36 25 2 15 3 2 3 -29 -1 -52 -3 -58 -23
-58 -16 0 -20 -5 -16 -20 6 -23 23 -26 41 -8 17 17 33 -8 26 -39 -5 -18 0 -25
19 -32 28 -11 42 -41 32 -71 -4 -12 0 -31 9 -45 9 -13 16 -29 16 -35 0 -13
-27 -13 -32 1 -6 17 -38 -2 -38 -22 0 -22 11 -24 28 -7 7 7 12 9 12 6 0 -3 5
-29 10 -58 8 -43 7 -63 -7 -106 -14 -46 -15 -59 -4 -92 10 -29 11 -49 3 -73
-6 -19 -13 -74 -16 -123 -3 -56 -10 -92 -18 -97 -7 -4 -13 -27 -14 -51 -2 -61
-23 -130 -45 -150 -20 -17 -26 -58 -8 -58 7 0 8 -11 3 -32 -4 -18 -7 -67 -7
-108 0 -50 -2 -67 -7 -50 -7 20 -8 17 -7 -17 0 -25 -6 -50 -15 -60 -8 -10 -18
-45 -22 -78 -4 -32 -14 -67 -23 -77 -9 -10 -13 -21 -10 -25 4 -3 0 -17 -9 -31
-8 -13 -13 -30 -10 -37 3 -8 1 -17 -3 -19 -4 -3 -11 -29 -14 -57 -4 -29 -11
-55 -16 -58 -5 -4 -12 -39 -15 -78 -3 -40 -9 -80 -14 -90 -17 -32 -42 -117
-42 -140 0 -13 -4 -23 -8 -23 -16 0 -29 -44 -25 -77 4 -24 1 -34 -11 -39 -10
-4 -16 -18 -16 -38 0 -17 -9 -44 -20 -61 -11 -16 -20 -39 -20 -50 0 -32 -30
-108 -51 -131 -11 -12 -17 -28 -14 -37 4 -8 0 -26 -8 -39 -8 -13 -17 -35 -21
-50 -4 -18 -21 -37 -46 -53 -39 -25 -50 -51 -30 -71 6 -6 6 -15 0 -24 -8 -13
-10 -12 -10 3 0 30 -14 18 -33 -28 -12 -27 -29 -50 -45 -57 -17 -9 -29 -25
-35 -48 -5 -19 -20 -49 -33 -67 -13 -17 -24 -43 -24 -57 0 -14 -4 -26 -10 -26
-5 0 -10 -6 -10 -14 0 -7 -7 -20 -17 -27 -15 -13 -13 -15 13 -20 l29 -6 -30
-13 c-16 -7 -33 -13 -37 -12 -5 1 -8 -7 -8 -18 0 -11 -13 -34 -29 -50 -16 -17
-34 -44 -41 -60 -7 -17 -20 -30 -29 -30 -13 0 -14 -2 -1 -9 8 -6 19 -7 25 -3
5 3 4 -2 -4 -11 -7 -9 -20 -17 -27 -17 -8 0 -14 -4 -14 -9 0 -5 -7 -11 -15
-15 -14 -5 -13 -2 0 24 15 29 15 30 -5 30 -11 0 -20 -7 -20 -15 0 -18 -12 -19
-28 -3 -9 9 -12 9 -12 0 0 -7 -5 -12 -11 -12 -6 0 -24 -9 -39 -20 -16 -11 -42
-22 -58 -24 -16 -2 -34 -6 -40 -10 -6 -4 -51 -15 -99 -25 -76 -17 -90 -17
-104 -5 -20 18 -35 18 -42 0 -12 -31 -210 -37 -351 -12 -76 14 -91 15 -105 3
-20 -18 -41 -11 -41 13 0 20 -48 41 -77 34 -10 -3 -37 2 -60 10 -23 8 -44 12
-46 8 -2 -4 -2 -1 0 6 2 8 -6 16 -17 19 -14 4 -20 14 -20 34 0 16 -6 30 -12
30 -7 1 -29 2 -48 3 -28 1 -35 5 -35 21 0 11 -6 19 -13 17 -8 -1 -23 9 -34 23
-15 19 -24 23 -31 16 -22 -22 -56 -11 -83 27 -36 48 -53 62 -78 62 -30 0 -101
70 -103 100 -3 61 -43 111 -43 54 0 -17 -4 -24 -12 -20 -7 3 -21 9 -30 12 -22
8 -24 24 -3 24 8 0 15 7 15 15 0 21 -13 19 -28 -5 -18 -29 -43 -12 -71 49 -17
34 -31 51 -49 56 -13 3 -27 4 -30 0 -3 -3 1 -5 10 -5 16 0 33 -29 42 -72 9
-41 -12 -35 -30 9 -16 36 -16 37 -32 16 -10 -11 -25 -23 -34 -26 -10 -4 -18
-13 -18 -21 0 -8 8 -17 18 -19 13 -4 11 -5 -5 -6 -13 0 -23 3 -23 7 0 5 -12
14 -26 21 -16 7 -24 17 -20 26 3 8 -2 18 -11 23 -8 5 -14 15 -11 23 5 14 -30
59 -46 59 -16 0 -56 42 -56 60 0 9 -12 23 -26 30 -21 12 -27 12 -34 0 -5 -8
-3 -19 6 -27 8 -8 14 -19 14 -25 0 -6 20 -35 45 -64 25 -28 45 -58 45 -66 0
-8 23 -42 51 -77 27 -34 54 -73 59 -87 9 -23 8 -24 -11 -14 -11 6 -25 22 -31
35 -6 14 -16 21 -25 18 -9 -4 -18 5 -25 25 -8 21 -20 32 -39 36 -17 3 -29 13
-33 28 -9 32 -48 76 -53 61 -7 -19 -43 -16 -43 3 0 14 -3 14 -16 4 -12 -11
-18 -10 -32 3 -10 11 -12 17 -4 17 9 0 9 6 0 25 -6 14 -19 25 -27 24 -9 -1
-24 2 -35 6 -13 6 -21 3 -28 -8 -8 -15 -12 -16 -38 -2 -32 16 -40 35 -16 35
35 0 28 25 -16 67 -9 9 -14 22 -11 30 4 9 -6 18 -26 26 -26 9 -31 17 -31 44 0
23 -5 33 -16 33 -11 0 -14 8 -12 33 3 30 1 32 -24 29 -16 -2 -28 1 -28 7 0 6
7 11 16 11 8 0 22 7 30 15 9 8 24 15 34 15 22 0 30 18 19 48 -10 26 -59 32
-59 7 0 -19 -16 -19 -24 0 -3 8 -12 15 -20 15 -9 0 -20 9 -27 21 -8 15 -14 18
-22 10 -16 -16 -23 -14 -36 15 -8 19 -9 30 0 40 16 19 2 35 -29 32 -21 -2 -27
1 -27 17 0 15 6 19 23 18 19 -2 22 1 18 23 -7 34 -16 43 -16 16 0 -17 -6 -22
-25 -22 -18 0 -23 4 -19 15 4 9 -4 26 -21 41 -17 16 -25 31 -21 41 8 20 -21
53 -46 53 -23 0 -23 9 0 26 16 13 16 15 -5 33 -28 24 -29 51 -3 74 11 9 17 23
14 32 -4 8 -1 15 5 15 6 0 11 5 11 10 0 6 -8 10 -18 10 -19 0 -52 33 -52 53 0
7 7 4 15 -7 19 -25 47 -14 43 16 -2 14 -9 23 -20 22 -14 -1 -15 3 -7 23 12 32
12 80 -1 88 -5 3 -10 13 -10 22 0 13 3 13 15 3 26 -22 45 -4 45 41 l0 42 37
-46 c32 -39 42 -45 63 -40 36 8 36 10 8 41 -21 22 -24 34 -21 65 5 39 -19 83
-39 70 -14 -8 -28 17 -28 50 0 20 6 30 18 34 15 4 17 11 12 46 -4 36 -8 42
-28 39 -12 -2 -22 2 -22 7 0 6 9 11 20 11 22 0 28 26 8 33 -10 3 -10 7 0 20 9
10 11 27 7 45 -4 20 -1 33 10 42 17 14 20 40 5 40 -5 0 -10 -5 -10 -11 0 -8
-5 -7 -16 2 -9 7 -13 21 -10 32 7 28 -8 52 -43 66 -26 11 -48 48 -36 60 3 2 5
-1 5 -8 0 -7 5 -9 10 -6 11 7 5 47 -12 82 -6 12 -7 30 -4 40 7 17 9 17 24 -3
9 -12 22 -30 28 -40 10 -16 14 -17 25 -6 11 10 10 20 -9 55 -12 23 -22 57 -22
75 0 25 -4 32 -20 32 -11 0 -20 7 -20 15 0 8 -4 15 -9 15 -4 0 -7 -25 -5 -55
3 -49 1 -55 -16 -55 -11 0 -20 5 -20 11 0 6 -7 8 -15 5 -21 -8 -31 21 -17 45
8 12 8 20 1 25 -6 3 -8 12 -5 19 3 8 -4 17 -15 20 -14 5 -18 12 -13 23 4 10 8
31 9 47 3 60 5 65 30 87 33 29 33 52 0 44 -19 -5 -27 -2 -31 11 -3 10 -11 29
-17 42 -10 19 -8 26 9 40 17 14 20 27 19 88 -2 66 -1 72 19 75 26 4 36 55 12
64 -37 14 -6 157 41 196 15 11 16 11 10 -4 -3 -10 -4 -25 -1 -33 5 -12 9 -12
30 3 13 9 24 22 24 29 0 11 30 33 44 33 3 0 6 -12 6 -26 0 -19 4 -25 15 -20
19 7 19 -13 -1 -39 -14 -19 -15 -19 -20 3 -7 25 -24 30 -24 7 0 -8 -5 -24 -12
-34 -9 -15 -9 -23 1 -35 18 -21 23 -20 54 7 34 29 46 91 22 116 -16 18 -15 20
6 26 16 5 26 2 34 -9 14 -19 39 -13 73 17 21 19 30 47 15 47 -4 0 -17 -9 -29
-21 -34 -32 -61 -8 -28 25 8 9 13 20 9 25 -3 6 9 7 32 4 41 -7 65 -29 88 -81
8 -19 23 -36 34 -39 10 -2 28 -18 40 -34 12 -16 29 -29 37 -29 18 0 39 -19 40
-37 1 -7 2 -17 3 -22 0 -5 17 -12 36 -15 30 -6 33 -9 23 -25 -7 -12 -18 -16
-31 -13 -14 3 -18 1 -15 -9 7 -21 52 -13 88 16 19 16 80 27 80 16 0 -5 -6 -12
-12 -15 -7 -3 8 -3 35 0 31 3 47 2 47 -6 0 -7 20 -11 58 -9 32 1 64 -1 71 -5
14 -9 278 -9 292 -1 4 3 63 8 131 11 243 10 321 23 419 75 20 10 45 16 57 12
16 -4 22 -1 22 11 0 10 9 16 25 16 13 0 28 6 32 13 10 15 69 57 80 57 5 0 24
13 43 30 19 16 41 29 48 30 6 0 12 6 12 14 0 8 6 21 13 28 23 25 67 98 67 112
0 24 18 28 43 11 24 -15 25 -15 48 37 13 29 24 58 25 63 1 6 2 15 3 20 1 6 6
3 11 -5 8 -11 9 -7 4 15 -4 17 -11 32 -16 33 -11 5 -10 39 1 46 5 4 12 0 14
-6 4 -8 6 -7 6 4 1 9 -3 20 -9 23 -5 3 -10 16 -10 27 0 12 3 18 6 15 7 -7 44
35 44 50 0 9 52 43 95 60 32 13 52 12 125 -8z m-2226 -39 c12 -12 -58 -13
-119 -3 l-40 7 30 7 c37 9 116 2 129 -11z m-2354 -38 c58 -59 71 -83 68 -125
-1 -20 7 -48 21 -70 19 -32 26 -36 61 -35 42 0 70 -15 70 -38 0 -7 -17 -30
-38 -51 -49 -49 -64 -85 -55 -132 3 -20 7 -58 7 -86 1 -68 23 -71 71 -8 20 26
46 53 58 59 37 20 74 -5 54 -37 -8 -13 -8 -24 1 -44 7 -14 12 -34 12 -44 0 -9
11 -32 24 -49 18 -25 24 -47 25 -100 4 -106 16 -163 55 -254 9 -21 16 -42 16
-47 0 -11 -40 -9 -117 4 -59 10 -55 -7 10 -39 28 -14 79 -48 112 -76 33 -28
81 -69 106 -90 40 -34 47 -45 52 -87 4 -41 2 -50 -19 -70 -13 -12 -24 -31 -24
-43 0 -11 -4 -20 -10 -20 -17 0 -42 -60 -31 -74 6 -7 8 -21 5 -33 -3 -11 -1
-24 4 -27 9 -5 33 57 45 119 3 13 5 10 6 -10 1 -23 3 -27 11 -15 5 8 10 27 10
41 0 15 7 33 16 40 9 7 20 25 26 39 l10 25 18 -36 c20 -37 34 -186 33 -331 -1
-69 -4 -82 -32 -124 -38 -59 -92 -95 -146 -102 -38 -4 -47 0 -82 32 -34 30
-48 36 -87 36 -30 0 -45 4 -44 12 2 6 -10 16 -27 21 -137 44 -192 106 -199
225 -2 34 0 62 4 62 8 0 -8 55 -23 77 -4 7 -14 10 -22 6 -11 -3 -13 -1 -9 10
3 8 1 18 -5 22 -6 3 -11 1 -11 -4 0 -6 -7 -11 -15 -11 -8 0 -15 4 -15 9 0 4
-22 47 -50 95 -27 48 -50 92 -50 99 0 7 -7 21 -15 31 -8 11 -15 28 -15 38 0
16 3 17 20 8 11 -6 20 -8 20 -4 0 3 7 1 15 -6 8 -6 19 -9 24 -6 5 4 46 -29 90
-71 84 -82 94 -102 76 -165 -6 -24 -3 -29 20 -40 18 -8 29 -9 33 -1 4 5 24 13
45 17 l37 7 0 53 c0 40 -6 62 -24 89 -14 20 -28 53 -31 74 -4 21 -9 45 -11 55
-6 20 -54 38 -104 38 -28 0 -43 8 -71 36 -18 20 -46 42 -62 50 -30 16 -119
123 -111 135 2 4 -7 32 -21 61 -27 57 -31 99 -22 218 3 41 9 118 12 170 3 52
10 109 16 125 8 22 8 45 -1 85 -14 64 -18 136 -10 235 4 62 8 71 30 82 14 7
45 13 69 13 39 0 49 -5 91 -48z m2265 -16 l30 -14 -29 -11 c-34 -14 -86 -5
-86 14 0 26 40 31 85 11z m164 -37 c-12 -21 -14 -22 -17 -6 -6 28 6 53 19 40
8 -8 7 -18 -2 -34z m1744 11 c-3 -11 -7 -20 -9 -20 -2 0 -4 9 -4 20 0 11 4 20
9 20 5 0 7 -9 4 -20z m-78 -19 c7 -12 -12 -24 -25 -16 -11 7 -4 25 10 25 5 0
11 -4 15 -9z m51 -103 c-24 -94 -69 -168 -144 -239 -38 -37 -80 -70 -93 -74
-19 -5 -21 -4 -9 4 13 10 13 12 0 21 -13 9 -13 10 0 11 8 1 21 1 28 0 6 -1 12
3 12 9 0 5 6 10 13 10 8 0 22 19 33 42 10 22 32 59 48 82 16 22 45 72 64 111
56 115 74 123 48 23z m-3696 10 c0 -13 -23 -5 -28 10 -2 7 2 10 12 6 9 -3 16
-11 16 -16z m2497 -14 c-3 -4 -14 -3 -24 0 -15 6 -15 8 -3 16 16 10 39 -4 27
-16z m103 16 c0 -5 -2 -10 -4 -10 -3 0 -8 5 -11 10 -3 6 -1 10 4 10 6 0 11 -4
11 -10z m-50 -31 c0 -5 -7 -9 -15 -9 -8 0 -15 7 -15 15 0 9 6 12 15 9 8 -4 15
-10 15 -15z m-3320 -159 c0 -5 -2 -10 -4 -10 -3 0 -8 5 -11 10 -3 6 -1 10 4
10 6 0 11 -4 11 -10z m2920 -30 c0 -5 -6 -10 -12 -11 -7 0 -2 -5 12 -10 20 -8
22 -12 10 -19 -8 -5 -21 -10 -28 -10 -13 0 -33 40 -25 53 6 11 43 9 43 -3z
m-112 -42 c5 -18 10 -25 11 -15 1 20 5 21 32 7 10 -6 19 -17 19 -24 0 -37 82
-50 159 -25 25 9 43 8 71 -1 29 -10 46 -10 71 -1 38 13 48 7 31 -19 -13 -21
-15 -20 62 -24 11 -1 24 -11 29 -24 12 -27 27 -29 27 -3 0 23 16 36 25 21 3
-5 25 -7 51 -3 40 5 46 4 51 -16 6 -25 57 -30 67 -6 3 8 17 15 31 15 14 0 28
-7 31 -15 6 -15 45 -22 43 -7 -5 29 2 44 19 37 9 -4 26 -10 37 -12 l20 -5 -20
15 c-19 15 -19 17 -3 33 14 14 20 15 32 5 9 -7 14 -18 13 -24 -1 -7 4 -11 12
-9 7 1 19 -2 27 -9 7 -6 19 -7 25 -3 9 5 7 10 -7 16 -17 7 -16 8 4 4 12 -2 45
3 73 12 48 15 51 15 60 -1 13 -22 35 -22 48 1 9 15 13 14 10 -4 -2 -13 26 -23
52 -17 15 3 30 0 33 -6 5 -7 -1 -11 -14 -11 -12 0 -18 -4 -15 -11 5 -7 -11 -9
-46 -8 -34 2 -54 -2 -57 -9 -2 -7 -11 -12 -21 -12 -9 0 -21 -4 -26 -9 -6 -5
-34 -12 -64 -16 -30 -3 -58 -8 -62 -11 -15 -9 -504 -13 -550 -4 -25 5 -68 11
-95 15 -145 16 -275 88 -309 169 -17 41 -18 46 -6 46 4 0 13 -15 19 -32z
m1042 -48 c0 -5 -7 -10 -15 -10 -8 0 -15 5 -15 10 0 6 7 10 15 10 8 0 15 -4
15 -10z m2157 -6 c-3 -3 -12 -4 -19 -1 -8 3 -5 6 6 6 11 1 17 -2 13 -5z
m-1817 -34 c0 -5 -7 -10 -16 -10 -8 0 -12 5 -9 10 3 6 10 10 16 10 5 0 9 -4 9
-10z m-3301 -89 c12 -16 21 -35 21 -41 0 -7 8 -19 18 -26 16 -12 16 -13 -2
-26 -11 -9 -20 -32 -23 -60 l-5 -45 31 5 c38 5 41 -10 5 -27 -19 -8 -23 -15
-16 -24 6 -6 13 -30 17 -52 4 -22 21 -80 38 -130 27 -79 30 -101 28 -185 -1
-51 -5 -98 -8 -102 -10 -18 -32 14 -43 65 -14 57 -35 100 -63 130 -33 34 -109
204 -112 249 -3 51 12 171 25 211 27 76 33 87 51 87 9 0 27 -13 38 -29z m5338
-76 c3 -9 3 -19 -1 -22 -7 -7 -36 16 -36 28 0 15 30 10 37 -6z m-5252 -15 c3
-5 2 -10 -4 -10 -5 0 -13 5 -16 10 -3 6 -2 10 4 10 5 0 13 -4 16 -10z m58
-195 c4 -8 2 -17 -3 -20 -6 -4 -10 3 -10 14 0 25 6 27 13 6z m1217 -59 c0 -3
-4 -8 -10 -11 -5 -3 -10 -1 -10 4 0 6 5 11 10 11 6 0 10 -2 10 -4z m-2082
-191 c6 -13 8 -26 4 -29 -5 -3 -13 8 -19 25 -14 35 -1 39 15 4z m3922 -57 c0
-16 -3 -19 -11 -11 -6 6 -8 16 -5 22 11 17 16 13 16 -11z m378 -199 c-2 -6 -8
-10 -13 -10 -5 0 -11 4 -13 10 -2 6 4 11 13 11 9 0 15 -5 13 -11z m1062 -49
c0 -5 -2 -10 -4 -10 -3 0 -8 5 -11 10 -3 6 -1 10 4 10 6 0 11 -4 11 -10z
m-3210 -54 c-15 -15 -32 7 -24 29 7 17 8 17 21 -1 9 -12 10 -21 3 -28z m3235
34 c3 -5 1 -10 -4 -10 -6 0 -11 5 -11 10 0 6 2 10 4 10 3 0 8 -4 11 -10z
m-1045 -15 c0 -8 -7 -15 -15 -15 -8 0 -15 7 -15 15 0 8 7 15 15 15 8 0 15 -7
15 -15z m275 -215 c3 -5 1 -10 -4 -10 -6 0 -11 5 -11 10 0 6 2 10 4 10 3 0 8
-4 11 -10z m-2315 -76 c0 -31 -23 -28 -28 4 -2 15 2 22 12 22 11 0 16 -9 16
-26z m2535 -7 c1 -15 -5 -27 -12 -27 -7 0 -10 7 -6 16 10 26 -20 12 -32 -14
-11 -26 -24 -28 -51 -7 -19 14 -19 14 2 15 11 0 34 11 50 25 35 30 49 28 49
-8z m-1087 -63 c-1 -23 -7 -34 -18 -34 -14 0 -16 19 -11 72 1 4 8 5 16 2 10
-4 15 -17 13 -40z m57 -14 c-5 -8 -11 -8 -17 -2 -6 6 -7 16 -3 22 5 8 11 8 17
2 6 -6 7 -16 3 -22z m1309 -73 c19 -19 25 -39 30 -100 9 -88 3 -123 -30 -189
-27 -53 -57 -76 -79 -58 -10 8 -17 6 -28 -11 -11 -15 -22 -20 -36 -16 -14 3
-26 -2 -35 -15 -33 -47 -219 -80 -253 -45 -14 14 -17 14 -33 -5 -14 -18 -31
-22 -119 -26 -117 -5 -144 3 -161 52 l-11 31 -17 -23 c-13 -16 -32 -24 -69
-29 -54 -6 -74 3 -140 68 l-21 22 -40 -42 c-29 -31 -47 -41 -70 -41 -42 0 -62
9 -62 29 0 9 -4 23 -9 30 -8 13 -13 11 -28 -6 -16 -19 -22 -20 -53 -10 -23 8
-36 20 -41 37 -4 14 -7 19 -8 13 -1 -7 -6 -13 -11 -13 -6 0 -9 13 -8 28 4 50
-20 68 -41 30 -11 -22 -61 -36 -61 -18 0 4 -14 14 -32 23 -23 11 -32 23 -35
47 -2 18 3 37 12 46 8 8 11 22 8 31 -5 14 -1 15 25 10 24 -5 32 -3 32 7 0 27
34 28 55 2 26 -33 31 -33 44 4 12 36 40 50 53 27 12 -23 28 -21 28 2 0 38 46
61 121 61 57 0 67 -3 63 -15 -4 -8 -1 -15 5 -15 6 0 11 4 11 10 0 5 22 16 49
24 38 11 94 13 250 10 111 -2 210 -8 220 -13 31 -17 83 -14 153 8 96 31 151
31 175 2 24 -30 63 -23 96 15 20 24 49 42 70 43 4 1 18 -9 31 -22z m-2824
-113 c0 -8 -4 -12 -10 -9 -5 3 -10 10 -10 16 0 5 5 9 10 9 6 0 10 -7 10 -16z
m20 -66 c0 -30 -25 -15 -28 17 -3 25 -2 27 12 16 9 -8 16 -22 16 -33z m-63
-55 c-3 -10 -5 -2 -5 17 0 19 2 27 5 18 2 -10 2 -26 0 -35z m1323 2 c7 -8 8
-15 2 -15 -5 0 -15 7 -22 15 -7 8 -8 15 -2 15 5 0 15 -7 22 -15z m1735 -215
c3 -5 1 -10 -4 -10 -6 0 -11 5 -11 10 0 6 2 10 4 10 3 0 8 -4 11 -10z m-937
-14 c12 -12 -22 -26 -63 -26 -48 0 -85 9 -85 20 0 16 132 21 148 6z m-2144
-82 c9 -23 7 -36 -3 -30 -12 8 -21 46 -11 46 4 0 11 -7 14 -16z m3037 -37 c-8
-8 -11 -7 -11 4 0 20 13 34 18 19 3 -7 -1 -17 -7 -23z m9 -81 c-7 -7 -10 1 -9
25 0 32 1 33 10 10 6 -16 6 -28 -1 -35z m-570 24 c0 -5 -5 -10 -11 -10 -5 0
-7 5 -4 10 3 6 8 10 11 10 2 0 4 -4 4 -10z m-20 -36 c0 -8 -5 -12 -10 -9 -6 4
-8 11 -5 16 9 14 15 11 15 -7z m227 -6 c-3 -8 -6 -5 -6 6 -1 11 2 17 5 13 3
-3 4 -12 1 -19z m-2593 -219 c-3 -5 -10 -7 -15 -3 -5 3 -7 10 -3 15 3 5 10 7
15 3 5 -3 7 -10 3 -15z m139 -158 c-10 -2 -23 -11 -30 -20 -11 -15 -12 -15
-13 0 0 9 7 19 15 23 8 3 15 13 15 23 1 16 2 16 16 -2 14 -18 13 -20 -3 -24z
m97 -31 c0 -5 -9 -10 -20 -10 -11 0 -20 5 -20 10 0 6 9 10 20 10 11 0 20 -4
20 -10z m10 -90 c0 -5 -2 -10 -4 -10 -3 0 -8 5 -11 10 -3 6 -1 10 4 10 6 0 11
-4 11 -10z m254 -383 c6 -9 7 -19 3 -23 -9 -9 -37 15 -37 33 0 18 20 12 34
-10z m816 -1337 c0 -5 -7 -10 -16 -10 -8 0 -12 5 -9 10 3 6 10 10 16 10 5 0 9
-4 9 -10z m220 -81 c0 -18 -13 -39 -24 -39 -6 1 -22 10 -36 21 -23 20 -24 22
-6 34 14 10 24 11 42 3 13 -6 24 -15 24 -19z"/>
<path d="M5738 10980 c10 -12 18 -16 21 -9 2 6 -3 15 -10 20 -24 15 -29 10
-11 -11z"/>
<path d="M5630 10950 c0 -5 5 -10 10 -10 6 0 10 5 10 10 0 6 -4 10 -10 10 -5
0 -10 -4 -10 -10z"/>
<path d="M5550 10895 c7 -8 16 -15 21 -15 5 0 9 7 9 15 0 9 -9 15 -21 15 -18
0 -19 -2 -9 -15z"/>
<path d="M5456 10844 c-9 -23 -8 -24 20 -24 20 0 25 4 20 16 -3 9 -6 18 -6 20
0 12 -29 2 -34 -12z"/>
<path d="M5450 10721 c-66 -9 -91 -31 -54 -45 27 -10 77 4 109 30 33 27 31 27
-55 15z"/>
<path d="M5940 10690 c-21 -7 -18 -8 18 -9 26 -1 41 3 37 9 -7 11 -19 11 -55
0z"/>
<path d="M5530 10579 c0 -14 5 -19 17 -17 26 5 29 38 4 38 -15 0 -21 -6 -21
-21z"/>
<path d="M5400 10561 c0 -6 5 -13 10 -16 6 -3 10 1 10 9 0 9 -4 16 -10 16 -5
0 -10 -4 -10 -9z"/>
<path d="M5470 10530 c0 -5 12 -10 26 -10 14 0 23 4 19 10 -3 6 -15 10 -26 10
-10 0 -19 -4 -19 -10z"/>
<path d="M5520 10434 c0 -8 5 -12 10 -9 6 3 10 10 10 16 0 5 -4 9 -10 9 -5 0
-10 -7 -10 -16z"/>
<path d="M6160 10370 c19 -13 30 -13 30 0 0 6 -10 10 -22 10 -19 0 -20 -2 -8
-10z"/>
<path d="M7551 10254 c0 -11 3 -14 6 -6 3 7 2 16 -1 19 -3 4 -6 -2 -5 -13z"/>
<path d="M5740 10239 c0 -24 23 -21 28 4 2 10 -3 17 -12 17 -10 0 -16 -9 -16
-21z"/>
<path d="M5083 10210 c-20 -24 -21 -29 -7 -34 25 -10 105 30 98 48 -11 27 -66
19 -91 -14z"/>
<path d="M4968 10203 c6 -2 18 -2 25 0 6 3 1 5 -13 5 -14 0 -19 -2 -12 -5z"/>
<path d="M4975 10131 c-8 -36 3 -55 23 -42 10 6 10 14 -2 41 l-14 33 -7 -32z"/>
<path d="M7960 10127 c0 -13 39 -41 47 -34 2 3 -2 14 -9 26 -14 23 -38 28 -38
8z"/>
<path d="M4903 10073 c-21 -7 -15 -33 7 -33 11 0 20 3 20 8 0 15 -15 29 -27
25z"/>
<path d="M5430 10054 c0 -3 5 -15 11 -26 9 -17 13 -18 20 -7 15 23 10 39 -11
39 -11 0 -20 -3 -20 -6z"/>
<path d="M4890 9990 c0 -5 5 -10 11 -10 5 0 7 5 4 10 -3 6 -8 10 -11 10 -2 0
-4 -4 -4 -10z"/>
<path d="M8058 9993 c6 -2 18 -2 25 0 6 3 1 5 -13 5 -14 0 -19 -2 -12 -5z"/>
<path d="M5396 9781 c-3 -5 1 -11 9 -15 9 -3 12 -12 8 -23 -4 -12 1 -9 14 7
12 14 19 28 16 32 -6 11 -41 10 -47 -1z"/>
<path d="M4967 9646 c-6 -15 1 -26 15 -26 11 0 10 27 -1 34 -5 3 -11 0 -14 -8z"/>
<path d="M5128 9635 c6 -33 -22 -34 -48 -2 -17 20 -19 20 -25 4 -4 -10 -1 -24
6 -33 12 -14 11 -19 -9 -32 -12 -8 -22 -21 -22 -28 0 -20 34 -17 80 6 36 18
38 22 38 65 0 30 -4 45 -12 45 -9 0 -12 -9 -8 -25z"/>
<path d="M4880 9604 c0 -9 5 -14 12 -12 18 6 21 28 4 28 -9 0 -16 -7 -16 -16z"/>
<path d="M4959 9577 c-15 -12 -14 -21 9 -57 2 -2 7 2 12 10 6 9 5 17 -2 21 -9
6 -8 12 1 23 16 19 3 21 -20 3z"/>
<path d="M4860 9570 c-13 -8 -12 -10 3 -10 9 0 17 5 17 10 0 12 -1 12 -20 0z"/>
<path d="M5411 9494 c0 -11 3 -14 6 -6 3 7 2 16 -1 19 -3 4 -6 -2 -5 -13z"/>
<path d="M5063 9493 c-30 -6 -49 -31 -35 -45 17 -17 66 5 70 30 2 12 0 21 -5
21 -4 -1 -18 -4 -30 -6z"/>
<path d="M4950 9465 c0 -8 7 -15 15 -15 8 0 15 7 15 15 0 8 -7 15 -15 15 -8 0
-15 -7 -15 -15z"/>
<path d="M5098 9406 c-4 -21 -3 -23 14 -13 19 12 19 28 1 34 -6 2 -13 -7 -15
-21z"/>
<path d="M4997 9413 c-10 -9 -8 -51 2 -57 10 -7 21 17 21 45 0 19 -11 25 -23
12z"/>
<path d="M5477 9363 c-12 -11 -8 -23 8 -23 8 0 15 7 15 15 0 16 -12 20 -23 8z"/>
<path d="M4890 9350 c0 -5 11 -10 25 -10 14 0 25 5 25 10 0 6 -11 10 -25 10
-14 0 -25 -4 -25 -10z"/>
<path d="M4820 9329 c0 -5 5 -7 10 -4 6 3 10 8 10 11 0 2 -4 4 -10 4 -5 0 -10
-5 -10 -11z"/>
<path d="M4920 9317 c0 -8 11 -19 25 -25 14 -6 25 -16 25 -22 0 -17 19 -11 30
9 8 17 5 22 -22 35 -38 20 -58 20 -58 3z"/>
<path d="M4846 9281 c-9 -14 5 -42 18 -38 18 6 20 47 2 47 -8 0 -17 -4 -20 -9z"/>
<path d="M8282 9273 c5 -25 28 -28 28 -4 0 12 -6 21 -16 21 -9 0 -14 -7 -12
-17z"/>
<path d="M4890 9257 c0 -23 4 -27 30 -27 17 0 30 5 30 10 0 6 -5 10 -12 10 -6
0 -20 7 -30 17 -17 15 -18 15 -18 -10z"/>
<path d="M4937 9213 c-12 -11 -8 -23 8 -23 8 0 15 7 15 15 0 16 -12 20 -23 8z"/>
<path d="M5047 9193 c-4 -3 -7 -15 -7 -25 0 -28 34 -19 38 10 3 21 -16 31 -31
15z"/>
<path d="M4886 9158 c-9 -34 -7 -83 3 -93 14 -16 24 -125 12 -125 -6 0 -11 -7
-11 -15 0 -8 -5 -15 -11 -15 -7 0 -9 10 -5 26 6 22 4 25 -15 22 -30 -4 -49
-35 -29 -48 25 -16 80 -12 80 6 0 10 4 12 13 7 6 -4 27 -8 45 -10 23 -1 32 2
32 14 0 9 -6 13 -15 9 -18 -7 -19 -2 -3 24 16 25 -1 56 -29 53 -22 -2 -24 6
-24 84 0 37 -6 56 -18 67 -17 16 -19 15 -25 -6z"/>
<path d="M4940 9107 c0 -22 16 -47 31 -47 13 0 19 32 9 51 -15 27 -40 24 -40
-4z"/>
<path d="M5210 9057 c0 -16 34 -67 45 -67 19 0 26 25 12 43 -11 14 -57 33 -57
24z"/>
<path d="M5710 8935 c0 -8 5 -15 10 -15 6 0 10 7 10 15 0 8 -4 15 -10 15 -5 0
-10 -7 -10 -15z"/>
<path d="M4975 8860 c-4 -6 -3 -16 3 -22 13 -13 23 4 13 21 -7 10 -10 10 -16
1z"/>
<path d="M4934 8749 c-8 -14 11 -33 25 -25 16 10 13 36 -3 36 -8 0 -18 -5 -22
-11z"/>
<path d="M5092 8743 c2 -10 12 -18 23 -18 11 0 21 8 23 18 3 13 -3 17 -23 17
-20 0 -26 -4 -23 -17z"/>
<path d="M4967 8614 c-13 -13 -7 -24 14 -24 11 0 19 5 17 12 -5 14 -22 21 -31
12z"/>
<path d="M5346 8481 c-3 -5 1 -15 10 -22 13 -10 17 -10 24 1 6 9 4 17 -3 22
-16 10 -25 10 -31 -1z"/>
<path d="M5104 8467 c-8 -21 2 -35 16 -21 5 5 6 15 0 24 -8 12 -10 12 -16 -3z"/>
<path d="M5100 8375 c0 -8 7 -15 16 -15 14 0 14 3 4 15 -7 8 -14 15 -16 15 -2
0 -4 -7 -4 -15z"/>
<path d="M5232 8364 c4 -21 22 -23 26 -1 2 10 -3 17 -13 17 -10 0 -15 -6 -13
-16z"/>
<path d="M7811 8282 c-15 -28 -14 -42 3 -36 19 7 29 35 17 47 -6 6 -13 1 -20
-11z"/>
<path d="M5236 8264 c-10 -26 -7 -44 8 -44 8 0 17 9 21 20 11 34 -16 57 -29
24z"/>
<path d="M5445 8250 c-4 -6 -3 -16 3 -22 13 -13 23 4 13 21 -7 10 -10 10 -16
1z"/>
<path d="M4660 8030 c0 -5 5 -10 10 -10 6 0 10 5 10 10 0 6 -4 10 -10 10 -5 0
-10 -4 -10 -10z"/>
<path d="M4820 8014 c0 -8 5 -12 10 -9 6 3 10 10 10 16 0 5 -4 9 -10 9 -5 0
-10 -7 -10 -16z"/>
<path d="M4870 7996 c0 -9 5 -16 10 -16 6 0 10 4 10 9 0 6 -4 13 -10 16 -5 3
-10 -1 -10 -9z"/>
<path d="M4791 7977 c-12 -15 -5 -27 16 -27 7 0 13 9 13 20 0 23 -13 26 -29 7z"/>
<path d="M4630 7965 c0 -8 5 -15 10 -15 6 0 10 7 10 15 0 8 -4 15 -10 15 -5 0
-10 -7 -10 -15z"/>
<path d="M4805 7920 c-7 -12 2 -30 16 -30 12 0 12 27 0 35 -5 3 -12 1 -16 -5z"/>
<path d="M4890 7810 c0 -5 5 -10 10 -10 6 0 10 5 10 10 0 6 -4 10 -10 10 -5 0
-10 -4 -10 -10z"/>
<path d="M4650 7760 c0 -5 5 -10 11 -10 5 0 7 5 4 10 -3 6 -8 10 -11 10 -2 0
-4 -4 -4 -10z"/>
<path d="M4950 7675 c0 -8 5 -15 10 -15 6 0 10 7 10 15 0 8 -4 15 -10 15 -5 0
-10 -7 -10 -15z"/>
<path d="M5530 6941 c0 -17 3 -18 24 -8 27 13 25 27 -5 27 -12 0 -19 -7 -19
-19z"/>
<path d="M5157 6874 c-8 -8 1 -24 14 -24 5 0 9 7 9 15 0 15 -12 20 -23 9z"/>
<path d="M5196 6755 c-3 -8 -1 -15 4 -15 6 0 10 7 10 15 0 8 -2 15 -4 15 -2 0
-6 -7 -10 -15z"/>
<path d="M5995 6750 c3 -5 8 -10 11 -10 2 0 4 5 4 10 0 6 -5 10 -11 10 -5 0
-7 -4 -4 -10z"/>
<path d="M7063 6568 c-29 -14 -31 -48 -3 -48 13 0 20 7 20 20 0 11 5 20 10 20
6 0 10 5 10 10 0 12 -8 12 -37 -2z"/>
<path d="M5146 6349 c-19 -19 -19 -19 7 -19 20 0 27 5 27 20 0 25 -9 25 -34
-1z"/>
<path d="M5210 6284 c0 -8 5 -12 10 -9 6 4 8 11 5 16 -9 14 -15 11 -15 -7z"/>
<path d="M5517 6284 c-10 -10 12 -44 28 -44 23 0 29 22 10 37 -21 15 -29 16
-38 7z"/>
<path d="M6940 6202 c0 -15 28 -47 35 -40 8 8 -13 48 -25 48 -6 0 -10 -4 -10
-8z"/>
<path d="M7175 6079 c-4 -6 -18 -9 -32 -6 l-24 4 22 -23 c26 -28 39 -27 50 4
9 23 -5 40 -16 21z"/>
<path d="M7048 6073 c7 -3 16 -2 19 1 4 3 -2 6 -13 5 -11 0 -14 -3 -6 -6z"/>
<path d="M5281 6008 c-11 -24 -21 -49 -21 -56 0 -20 21 -24 46 -7 21 14 24 21
19 48 -13 60 -21 62 -44 15z"/>
<path d="M6905 6023 c-9 -37 9 -48 22 -14 8 23 8 31 -2 35 -8 3 -16 -6 -20
-21z"/>
<path d="M7077 6023 c-10 -9 -9 -23 2 -23 5 0 11 7 15 15 5 15 -5 20 -17 8z"/>
<path d="M5450 5944 c0 -8 5 -12 10 -9 6 4 8 11 5 16 -9 14 -15 11 -15 -7z"/>
<path d="M8430 5906 c0 -21 21 -31 31 -15 14 22 11 29 -11 29 -11 0 -20 -6
-20 -14z"/>
<path d="M6590 5825 c-13 -16 -7 -45 9 -45 6 0 15 9 20 19 14 26 -10 48 -29
26z"/>
<path d="M6946 5796 c-8 -31 -7 -36 7 -36 6 0 17 11 23 24 10 21 9 25 -6 29
-12 3 -20 -2 -24 -17z"/>
<path d="M7268 5803 c7 -3 16 -2 19 1 4 3 -2 6 -13 5 -11 0 -14 -3 -6 -6z"/>
<path d="M6866 5745 c-7 -27 -1 -45 15 -45 5 0 9 16 9 35 0 41 -15 47 -24 10z"/>
<path d="M5387 5723 c-4 -3 -7 -19 -7 -34 0 -15 -4 -31 -10 -34 -16 -10 -11
-53 8 -72 11 -10 23 -27 27 -38 8 -19 9 -19 13 3 2 16 -3 29 -17 39 -28 19
-28 47 0 40 19 -5 20 -2 14 32 -5 30 -3 40 10 45 9 3 13 10 10 16 -7 11 -38
13 -48 3z"/>
<path d="M6444 5675 c-9 -22 22 -53 37 -38 15 15 7 47 -14 51 -9 2 -20 -4 -23
-13z"/>
<path d="M5425 5509 c-10 -15 3 -25 16 -12 7 7 7 13 1 17 -6 3 -14 1 -17 -5z"/>
<path d="M5365 5480 c3 -5 8 -10 11 -10 2 0 4 5 4 10 0 6 -5 10 -11 10 -5 0
-7 -4 -4 -10z"/>
<path d="M5390 5450 c0 -5 5 -10 10 -10 6 0 10 5 10 10 0 6 -4 10 -10 10 -5 0
-10 -4 -10 -10z"/>
<path d="M5382 5413 c-11 -19 -9 -24 9 -33 27 -15 30 -11 15 25 -12 30 -13 30
-24 8z"/>
<path d="M5380 5265 c0 -8 5 -15 10 -15 6 0 10 7 10 15 0 8 -4 15 -10 15 -5 0
-10 -7 -10 -15z"/>
<path d="M5290 5223 c-20 -7 -50 -34 -50 -45 0 -4 6 -8 14 -8 11 0 13 -9 9
-34 -4 -28 -1 -36 16 -45 12 -7 26 -9 31 -6 17 11 11 54 -10 75 l-21 21 26 -7
c18 -4 25 -2 25 8 0 22 -24 46 -40 41z"/>
<path d="M8375 5221 c-3 -5 -1 -12 5 -16 5 -3 10 1 10 9 0 18 -6 21 -15 7z"/>
<path d="M8390 5090 c0 -5 5 -10 10 -10 6 0 10 5 10 10 0 6 -4 10 -10 10 -5 0
-10 -4 -10 -10z"/>
<path d="M5590 5066 c0 -9 7 -16 16 -16 9 0 14 5 12 12 -6 18 -28 21 -28 4z"/>
<path d="M5290 5049 c0 -5 5 -7 10 -4 6 3 10 8 10 11 0 2 -4 4 -10 4 -5 0 -10
-5 -10 -11z"/>
<path d="M5255 4980 c-9 -15 2 -27 30 -32 30 -6 32 3 7 25 -21 20 -28 21 -37
7z"/>
<path d="M8320 4921 c0 -21 13 -41 26 -41 8 0 14 10 14 25 0 18 -5 25 -20 25
-11 0 -20 -4 -20 -9z"/>
<path d="M7905 4820 c-3 -5 -1 -10 4 -10 6 0 11 5 11 10 0 6 -2 10 -4 10 -3 0
-8 -4 -11 -10z"/>
<path d="M5552 4808 c6 -18 28 -21 28 -4 0 9 -7 16 -16 16 -9 0 -14 -5 -12
-12z"/>
<path d="M8045 4750 c-3 -5 1 -10 9 -10 9 0 16 5 16 10 0 6 -4 10 -9 10 -6 0
-13 -4 -16 -10z"/>
<path d="M7990 4740 c0 -5 5 -10 10 -10 6 0 10 5 10 10 0 6 -4 10 -10 10 -5 0
-10 -4 -10 -10z"/>
<path d="M8044 4717 c-8 -22 11 -46 26 -31 7 7 5 17 -4 30 -14 18 -15 18 -22
1z"/>
<path d="M7467 4713 c-24 -6 -16 -27 11 -31 17 -3 22 2 22 17 0 21 -2 22 -33
14z"/>
<path d="M7583 4713 c-7 -2 -13 -9 -13 -15 0 -12 41 -6 41 7 1 12 -11 15 -28
8z"/>
<path d="M5731 4664 c0 -11 3 -14 6 -6 3 7 2 16 -1 19 -3 4 -6 -2 -5 -13z"/>
<path d="M5436 4635 c-3 -8 -1 -15 4 -15 6 0 10 7 10 15 0 8 -2 15 -4 15 -2 0
-6 -7 -10 -15z"/>
<path d="M8356 4632 c-3 -6 -1 -14 5 -17 15 -10 25 3 12 16 -7 7 -13 7 -17 1z"/>
<path d="M6350 4581 c0 -12 5 -21 10 -21 6 0 10 6 10 14 0 8 -4 18 -10 21 -5
3 -10 -3 -10 -14z"/>
<path d="M5641 4564 c0 -11 3 -14 6 -6 3 7 2 16 -1 19 -3 4 -6 -2 -5 -13z"/>
<path d="M8167 4553 c-3 -5 -8 -24 -12 -43 -3 -19 -9 -44 -12 -55 -5 -18 -4
-18 18 -3 19 12 24 25 25 62 1 41 -7 59 -19 39z"/>
<path d="M5805 4467 c-4 -10 -5 -21 -1 -24 10 -10 18 4 13 24 -4 17 -4 17 -12
0z"/>
<path d="M5828 4423 c7 -3 16 -2 19 1 4 3 -2 6 -13 5 -11 0 -14 -3 -6 -6z"/>
<path d="M8070 4385 c0 -35 20 -49 35 -25 4 6 15 8 26 5 16 -5 19 -1 19 24 0
29 -2 31 -40 31 -39 0 -40 -1 -40 -35z"/>
<path d="M5810 4401 c0 -10 22 -31 32 -31 17 0 7 28 -12 33 -11 3 -20 2 -20
-2z"/>
<path d="M8300 4395 c-13 -15 -7 -45 8 -45 17 0 33 27 26 44 -8 20 -18 20 -34
1z"/>
<path d="M5635 4331 c-3 -5 -1 -12 5 -16 5 -3 10 1 10 9 0 18 -6 21 -15 7z"/>
<path d="M8115 4230 c3 -5 8 -10 11 -10 2 0 4 5 4 10 0 6 -5 10 -11 10 -5 0
-7 -4 -4 -10z"/>
<path d="M8267 4183 c-4 -3 -7 -15 -7 -25 0 -28 34 -19 38 10 3 21 -16 31 -31
15z"/>
<path d="M6130 4075 c0 -8 9 -15 20 -15 24 0 27 15 4 24 -22 9 -24 8 -24 -9z"/>
<path d="M8301 4044 c0 -11 3 -14 6 -6 3 7 2 16 -1 19 -3 4 -6 -2 -5 -13z"/>
<path d="M3332 6468 c3 -7 13 -15 24 -17 16 -3 17 -1 5 13 -16 19 -34 21 -29
4z"/>
<path d="M6503 6953 c9 -2 23 -2 30 0 6 3 -1 5 -18 5 -16 0 -22 -2 -12 -5z"/>
<path d="M2575 7069 c4 -19 18 -56 31 -83 13 -28 24 -55 24 -62 0 -6 7 -17 15
-24 20 -17 20 7 0 34 -8 11 -15 28 -15 38 0 10 -4 18 -9 18 -5 0 -14 23 -21
50 -14 57 -37 83 -25 29z"/>
<path d="M6886 2484 c-9 -24 -8 -26 14 -14 11 6 20 15 20 20 0 16 -27 11 -34
-6z"/>
<path d="M7377 2128 c-16 -13 -69 -63 -119 -112 -84 -83 -88 -89 -73 -106 20
-22 12 -40 -16 -40 -23 0 -25 -27 -5 -55 12 -16 16 -17 30 -6 10 9 28 11 56 6
42 -7 44 -5 41 40 -1 17 1 17 22 -7 26 -32 47 -35 82 -12 34 22 31 31 -12 50
l-38 16 28 10 c34 12 80 -4 71 -25 -10 -27 32 -49 102 -53 37 -3 70 -7 73 -9
12 -13 -16 -20 -77 -20 -58 0 -67 -3 -70 -19 -4 -21 34 -96 55 -109 10 -6 11
-12 4 -21 -14 -17 18 -32 81 -41 82 -11 63 -38 -22 -32 -34 2 -35 1 -38 -39
-2 -30 2 -45 18 -59 11 -10 20 -29 20 -42 0 -29 33 -63 62 -63 12 0 48 -7 80
-16 79 -23 88 -13 60 61 -12 31 -22 66 -22 78 0 11 -7 29 -17 39 -12 14 -17
41 -19 113 -2 87 -4 98 -30 127 l-27 33 24 3 c13 2 30 11 37 20 12 15 19 11
66 -40 28 -32 57 -58 64 -58 6 0 12 -7 12 -15 0 -8 5 -15 10 -15 14 0 13 6
-15 62 -37 73 -150 212 -210 257 -66 50 -185 111 -227 117 -24 3 -41 -2 -61
-18z m141 -70 c13 -13 16 -57 4 -75 -8 -12 -38 -17 -87 -14 l-30 2 28 20 c33
25 27 39 -19 39 -22 0 -34 5 -34 14 0 9 8 12 24 9 13 -3 32 0 43 6 24 14 56
14 71 -1z m-28 -148 c0 -5 -7 -10 -15 -10 -8 0 -15 5 -15 10 0 6 7 10 15 10 8
0 15 -4 15 -10z"/>
<path d="M7477 2033 c-4 -3 -7 -11 -7 -17 0 -6 5 -5 12 2 6 6 9 14 7 17 -3 3
-9 2 -12 -2z"/>
<path d="M6902 1898 c-26 -26 -10 -78 23 -78 14 0 25 -7 28 -17 3 -10 4 0 3
22 l-1 40 38 -3 c54 -5 49 21 -8 36 -57 15 -68 15 -83 0z"/>
<path d="M7017 1834 c-4 -4 -7 -18 -7 -31 0 -22 3 -24 33 -18 37 8 61 25 50
36 -12 11 -68 21 -76 13z"/>
<path d="M7356 1795 c-11 -8 -30 -15 -42 -15 -13 0 -35 -5 -49 -12 -18 -8 -32
-8 -48 -1 -31 14 -57 -1 -57 -32 0 -14 8 -29 20 -35 11 -6 20 -16 20 -23 0 -7
5 -18 12 -25 7 -7 13 -22 13 -35 0 -27 30 -34 55 -12 12 11 20 13 25 6 10 -17
45 -13 52 7 9 26 34 52 44 46 5 -3 9 -16 9 -30 0 -29 21 -40 49 -24 26 14 27
46 1 60 -11 6 -17 16 -14 25 7 18 -13 81 -33 100 -18 19 -33 19 -57 0z m-72
-71 c13 -5 14 -9 5 -20 -15 -18 -39 -18 -39 -1 0 12 9 27 16 27 1 0 10 -3 18
-6z"/>
<path d="M6865 1779 c-4 -6 -5 -13 -2 -16 7 -7 27 6 27 18 0 12 -17 12 -25 -2z"/>
<path d="M7034 1740 c-23 -10 -45 -23 -49 -30 -4 -6 -16 -8 -26 -5 -18 6 -20
3 -13 -29 4 -24 2 -42 -6 -51 -16 -20 -8 -28 32 -30 46 -3 68 4 68 21 0 8 9
14 21 14 18 0 20 -4 14 -29 -6 -26 -3 -30 25 -36 51 -11 83 30 38 50 -15 7
-22 17 -20 30 9 59 -6 116 -31 114 -7 0 -31 -9 -53 -19z m16 -50 c0 -5 -5 -10
-11 -10 -5 0 -7 5 -4 10 3 6 8 10 11 10 2 0 4 -4 4 -10z"/>
<path d="M6694 1725 c-18 -14 -18 -14 3 -15 23 0 39 15 25 24 -5 3 -18 -1 -28
-9z"/>
<path d="M6843 1693 c-21 -8 -14 -20 15 -26 32 -6 61 11 40 24 -14 9 -36 10
-55 2z"/>
<path d="M6705 1651 c-3 -5 -1 -12 5 -16 5 -3 10 -31 10 -61 0 -37 4 -54 13
-54 8 0 11 17 10 58 -2 31 -5 63 -8 70 -5 14 -21 16 -30 3z"/>
<path d="M6645 1631 c-10 -17 12 -21 25 -6 10 12 10 15 -3 15 -9 0 -18 -4 -22
-9z"/>
<path d="M6575 1610 c-3 -5 3 -10 14 -10 11 0 23 5 26 10 3 6 -3 10 -14 10
-11 0 -23 -4 -26 -10z"/>
<path d="M6500 1580 c0 -5 5 -10 10 -10 6 0 10 5 10 10 0 6 -4 10 -10 10 -5 0
-10 -4 -10 -10z"/>
<path d="M7435 1572 c-18 -9 -58 -16 -102 -17 -72 -2 -103 -14 -103 -41 0 -8
10 -14 23 -14 12 0 28 -4 36 -9 11 -7 11 -12 -2 -31 -15 -21 -14 -26 4 -61 21
-42 33 -48 43 -23 5 13 15 15 44 12 34 -5 40 -2 55 23 21 37 32 37 46 -1 7
-22 16 -30 35 -30 35 0 44 35 15 58 -18 15 -20 22 -11 39 9 16 8 30 -1 59 -16
46 -42 57 -82 36z m-77 -151 c3 -19 0 -22 -13 -17 -9 3 -19 6 -21 6 -2 0 -4 9
-4 21 0 29 34 21 38 -10z"/>
<path d="M6977 1574 c-13 -13 -7 -24 14 -24 11 0 19 5 17 12 -5 14 -22 21 -31
12z"/>
<path d="M6480 1564 c0 -17 17 -36 24 -26 3 5 -1 15 -9 22 -8 7 -15 9 -15 4z"/>
<path d="M6610 1553 c-29 -4 -61 -43 -36 -43 23 0 86 30 86 40 0 10 -4 10 -50
3z"/>
<path d="M7095 1525 c-16 -7 -44 -19 -60 -26 -28 -11 -31 -16 -29 -56 2 -38 6
-48 32 -63 33 -20 42 -17 42 15 0 27 8 35 26 28 8 -3 14 -16 14 -29 0 -33 41
-59 69 -44 24 12 28 50 6 50 -11 0 -15 12 -16 43 -2 91 -22 111 -84 82z m50
-44 c0 -8 -8 -19 -18 -25 -22 -14 -42 11 -25 32 14 16 43 12 43 -7z m-75 -15
c0 -14 -28 -42 -35 -34 -2 2 -2 14 2 26 6 24 33 31 33 8z"/>
<path d="M6900 1480 c-13 -9 -13 -11 0 -20 19 -12 47 -13 55 -1 3 6 -3 15 -14
20 -24 13 -22 13 -41 1z"/>
<path d="M6285 1426 c-33 -24 -59 -49 -57 -55 1 -6 -4 -11 -10 -11 -7 0 -28
-9 -46 -20 l-34 -21 26 -26 c14 -14 26 -29 26 -33 0 -4 11 -12 25 -18 15 -7
25 -20 25 -32 0 -11 10 -28 22 -38 12 -9 46 -40 75 -68 39 -38 87 -69 178
-113 127 -62 145 -69 145 -51 0 23 -67 80 -94 80 -28 0 -35 17 -11 26 20 8 19
24 -4 48 -11 12 -28 37 -38 56 l-20 35 -72 -4 c-70 -3 -131 11 -131 30 0 5 15
9 33 9 18 0 38 5 45 12 9 9 16 7 31 -6 22 -20 82 -19 89 2 2 6 -3 12 -11 12
-23 0 -40 28 -46 73 -7 46 -2 44 -108 46 -70 1 -63 26 8 33 64 7 76 18 54 52
-10 14 -22 26 -29 25 -6 0 -38 -20 -71 -43z m95 -107 c0 -5 -4 -9 -10 -9 -5 0
-10 7 -10 16 0 8 5 12 10 9 6 -3 10 -10 10 -16z m120 -254 c18 -22 -1 -39 -34
-31 -23 6 -25 9 -16 26 13 24 33 26 50 5z"/>
<path d="M6770 1425 c0 -8 5 -15 10 -15 6 0 10 7 10 15 0 8 -4 15 -10 15 -5 0
-10 -7 -10 -15z"/>
<path d="M6505 1370 c-3 -5 3 -10 14 -10 11 0 26 -7 35 -15 20 -21 24 -19 22
10 -1 21 -6 25 -33 25 -17 0 -35 -4 -38 -10z"/>
<path d="M6779 1368 c-2 -29 -6 -54 -13 -75 -6 -20 -4 -23 21 -23 45 0 57 13
33 35 -11 10 -20 28 -20 41 0 24 -19 45 -21 22z"/>
<path d="M6632 1339 c-20 -31 -14 -46 19 -51 53 -8 106 29 79 56 -5 5 -27 11
-48 12 -28 1 -42 -3 -50 -17z"/>
<path d="M7040 1335 c0 -8 5 -15 10 -15 6 0 10 7 10 15 0 8 -4 15 -10 15 -5 0
-10 -7 -10 -15z"/>
<path d="M7445 1331 c-36 -13 -57 -16 -75 -9 -30 11 -70 2 -70 -17 0 -7 9 -17
20 -20 15 -5 20 -15 20 -41 0 -31 3 -35 22 -32 16 2 23 10 23 27 0 13 6 26 13
28 8 3 12 -7 12 -30 0 -32 -3 -35 -35 -41 -37 -7 -45 -20 -19 -30 8 -3 13 -10
9 -15 -12 -20 15 -20 29 0 16 24 46 20 46 -6 0 -8 6 -15 14 -15 18 0 46 38 46
62 0 30 27 20 34 -12 5 -27 10 -30 41 -30 42 0 53 18 32 52 -8 13 -15 38 -15
57 -1 18 -6 39 -11 44 -6 6 -11 19 -11 29 0 24 -56 23 -125 -1z m95 -26 c0 -8
-4 -15 -9 -15 -13 0 -22 16 -14 24 11 11 23 6 23 -9z"/>
<path d="M7620 1334 c0 -23 21 -97 32 -108 4 -6 8 -19 8 -31 0 -11 7 -30 15
-43 12 -16 13 -27 5 -41 -15 -28 -12 -52 6 -66 15 -10 15 -13 0 -27 -14 -14
-13 -16 6 -21 16 -5 19 -11 14 -32 -4 -14 -1 -35 5 -46 9 -17 17 -20 44 -15
21 4 36 2 40 -5 4 -6 19 -9 36 -5 15 3 31 1 35 -5 8 -13 2 -19 -27 -24 -13 -3
-25 -9 -27 -15 -2 -5 -14 -3 -28 6 -22 15 -26 15 -49 0 -32 -21 -31 -31 1 -60
24 -20 25 -25 14 -45 -10 -19 -10 -25 1 -32 8 -5 14 -23 14 -41 0 -30 2 -33
30 -31 110 8 129 7 132 -3 4 -12 -29 -21 -107 -31 -25 -3 -51 -10 -57 -15 -21
-17 -15 -46 10 -50 17 -2 23 -11 25 -35 2 -25 8 -33 23 -33 25 0 25 -20 0 -27
-20 -5 -38 -64 -25 -84 4 -7 22 -9 45 -6 22 3 42 1 45 -4 3 -6 14 -7 25 -4 11
4 19 2 19 -4 0 -6 -7 -11 -15 -11 -18 0 -19 -8 -2 -43 6 -15 20 -27 29 -27 21
0 32 17 16 23 -8 3 -6 6 5 6 9 1 17 -6 17 -14 0 -19 34 -19 50 0 15 18 50 20
50 2 0 -19 -21 -37 -42 -37 -10 0 -18 -6 -18 -14 0 -9 7 -12 20 -9 10 3 32 -4
49 -16 17 -12 37 -19 48 -15 10 3 24 8 30 10 15 4 -28 91 -64 130 -25 27 -30
63 -12 92 8 13 1 37 -29 107 -22 50 -44 90 -50 90 -13 0 -39 24 -29 26 4 1 13
2 20 3 6 1 11 8 10 16 -1 17 -34 147 -58 235 -9 33 -23 85 -30 115 -8 30 -22
60 -32 67 -10 7 -27 19 -38 27 -19 15 -19 15 8 16 33 0 33 6 1 102 -28 84 -39
98 -81 103 -151 17 -163 17 -163 -1z m185 -204 c17 -4 22 -8 12 -9 -9 0 -26
-7 -37 -13 -21 -14 -50 -3 -58 20 -4 13 35 14 83 2z m145 -260 c0 -5 -4 -10
-9 -10 -6 0 -13 5 -16 10 -3 6 1 10 9 10 9 0 16 -4 16 -10z m-70 -316 c0 -16
-16 -19 -25 -4 -8 13 4 32 16 25 5 -4 9 -13 9 -21z m83 -110 c9 -9 -4 -35 -14
-28 -5 3 -9 12 -9 20 0 14 12 19 23 8z m-79 -49 c-4 -8 -8 -15 -10 -15 -2 0
-4 7 -4 15 0 8 4 15 10 15 5 0 7 -7 4 -15z m141 -45 c3 -5 -3 -10 -14 -10 -12
0 -21 5 -21 10 0 6 6 10 14 10 8 0 18 -4 21 -10z"/>
<path d="M6550 1300 c0 -11 5 -20 10 -20 6 0 10 9 10 20 0 11 -4 20 -10 20 -5
0 -10 -9 -10 -20z"/>
<path d="M7173 1296 c-47 -17 -53 -29 -11 -21 43 8 57 -9 38 -45 -16 -30 -19
-108 -5 -114 20 -7 66 6 72 21 3 8 -4 23 -15 33 -13 13 -22 38 -27 79 -4 34
-10 60 -13 60 -4 -1 -21 -7 -39 -13z"/>
<path d="M6580 1260 c-13 -9 -13 -11 -1 -19 18 -11 55 5 46 20 -8 12 -26 11
-45 -1z"/>
<path d="M6657 1264 c-13 -13 -7 -24 14 -24 11 0 19 5 17 12 -5 14 -22 21 -31
12z"/>
<path d="M6946 1241 c-3 -5 6 -12 20 -15 29 -8 39 -3 29 13 -8 13 -42 14 -49
2z"/>
<path d="M6816 1218 c-3 -7 -6 -22 -8 -32 -2 -11 -8 -21 -14 -23 -7 -2 -10 6
-7 22 4 16 1 25 -8 25 -16 0 -78 -19 -102 -32 -12 -6 -23 -5 -32 2 -8 6 -29
10 -47 8 -25 -2 -34 -8 -36 -25 -3 -18 2 -23 20 -24 38 -2 62 2 76 14 9 7 16
7 24 -1 16 -16 6 -23 -41 -29 -23 -3 -41 -11 -41 -17 0 -23 55 -53 108 -59 45
-5 54 -3 58 11 14 46 39 60 39 22 1 -23 13 -37 38 -42 24 -4 17 -22 -9 -24
-12 0 -43 -7 -68 -14 -41 -11 -49 -11 -64 4 -21 18 -42 21 -42 5 0 -30 143
-129 187 -129 27 0 33 -9 37 -59 3 -42 22 -75 37 -65 5 3 9 -4 9 -15 0 -15 13
-27 48 -43 26 -12 63 -37 84 -57 30 -29 35 -40 31 -66 -3 -22 1 -36 17 -53 19
-20 22 -32 18 -72 -3 -27 -1 -53 4 -58 6 -6 -2 -23 -20 -43 -24 -29 -30 -46
-36 -109 -4 -41 -12 -89 -18 -107 -9 -25 -9 -35 1 -47 17 -20 31 -11 31 19 0
13 5 27 11 30 6 4 7 19 4 36 -7 31 7 59 30 59 18 0 17 -99 -1 -125 -33 -46 1
-84 34 -38 25 34 57 26 48 -12 -9 -36 18 -22 38 20 19 39 42 51 55 27 14 -24
25 -8 12 17 -9 16 -8 24 7 39 18 18 18 19 0 42 -19 23 -18 23 12 53 16 16 30
33 30 37 0 14 -76 28 -139 26 -48 -2 -67 -7 -77 -20 -7 -10 -17 -15 -23 -11
-17 10 -13 43 7 53 25 12 111 13 133 1 12 -6 19 -6 19 0 0 5 10 11 23 13 17 2
21 8 19 28 -2 14 -5 48 -8 75 -8 81 -13 95 -34 95 -14 0 -20 -7 -20 -22 0 -12
-3 -18 -7 -14 -4 4 -8 15 -8 24 0 14 -10 17 -59 17 -50 0 -61 3 -74 23 -15 23
-15 23 29 20 44 -3 44 -3 42 28 -2 21 2 34 12 38 9 3 15 18 15 36 0 28 -3 31
-25 28 -30 -4 -34 15 -4 22 12 3 24 11 27 19 3 9 -10 12 -57 10 -45 -2 -65 2
-79 14 -42 38 -75 3 -52 -54 13 -30 9 -46 -9 -35 -13 8 -64 115 -67 141 -4 34
-46 149 -60 165 -7 9 -11 25 -8 37 3 12 -1 34 -10 50 -9 15 -19 50 -24 77 -7
48 -27 72 -36 44z m264 -488 c0 -5 -4 -10 -10 -10 -5 0 -10 5 -10 10 0 6 5 10
10 10 6 0 10 -4 10 -10z m70 -15 c0 -8 -4 -15 -10 -15 -5 0 -10 5 -10 11 0 5
-4 8 -9 4 -5 -3 -12 -1 -16 5 -4 6 5 10 19 10 16 0 26 -6 26 -15z m50 -560 c0
-9 -6 -12 -15 -9 -8 4 -15 10 -15 15 0 5 7 9 15 9 8 0 15 -7 15 -15z"/>
<path d="M7100 1201 c0 -18 26 -31 38 -19 19 19 14 28 -13 28 -14 0 -25 -4
-25 -9z"/>
<path d="M7062 1179 c-7 -10 -8 -19 -3 -19 13 0 33 28 23 33 -4 3 -13 -3 -20
-14z"/>
<path d="M7552 1109 c-4 -3 -32 -12 -63 -19 -44 -10 -61 -10 -78 0 -19 10 -26
9 -42 -6 -25 -23 -24 -36 5 -61 25 -22 56 -15 56 12 0 19 14 19 30 0 9 -11 17
-12 32 -4 17 9 19 8 16 -8 -2 -10 -12 -19 -23 -21 -11 -2 -28 -11 -38 -20 -13
-12 -20 -13 -29 -4 -16 16 -25 15 -32 -4 -9 -24 13 -47 31 -33 17 15 53 -14
53 -43 0 -12 7 -18 24 -18 21 0 25 6 28 33 2 25 8 32 26 33 18 1 24 -5 29 -28
3 -15 10 -31 14 -34 14 -8 47 5 53 22 9 23 -4 64 -20 64 -16 0 -19 16 -4 25
12 7 14 115 3 116 -40 4 -65 4 -71 -2z m13 -39 c3 -6 3 -19 0 -31 -7 -19 -7
-20 -21 -2 -7 10 -14 24 -14 31 0 14 26 16 35 2z m5 -80 c0 -5 -5 -10 -11 -10
-5 0 -7 5 -4 10 3 6 8 10 11 10 2 0 4 -4 4 -10z"/>
<path d="M7236 1012 c2 -75 2 -78 14 -66 5 5 11 35 13 67 3 47 1 57 -12 57
-13 0 -16 -11 -15 -58z"/>
<path d="M7110 1015 c0 -8 5 -15 10 -15 6 0 10 7 10 15 0 8 -4 15 -10 15 -5 0
-10 -7 -10 -15z"/>
<path d="M6973 1014 c-30 -13 -11 -29 35 -29 35 0 47 4 47 15 0 15 -56 25 -82
14z"/>
<path d="M7100 955 c-7 -8 -9 -22 -6 -31 5 -13 9 -14 22 -4 10 9 18 10 26 2
18 -18 0 -29 -41 -27 -41 2 -88 -26 -76 -46 10 -16 44 -10 65 11 24 24 42 26
34 5 -4 -8 -1 -15 5 -15 6 0 11 7 11 15 0 7 6 18 13 22 14 9 42 61 36 67 -2 2
-20 6 -40 10 -26 5 -40 2 -49 -9z"/>
<path d="M6995 931 c-51 -8 -32 -21 29 -19 30 0 45 5 43 12 -5 14 -20 15 -72
7z"/>
<path d="M7248 893 c-24 -6 -23 -23 1 -23 28 0 52 11 45 21 -5 9 -17 10 -46 2z"/>
<path d="M6985 850 c4 -6 11 -8 16 -5 14 9 11 15 -7 15 -8 0 -12 -5 -9 -10z"/>
<path d="M7620 841 c-8 -5 -43 -12 -77 -16 -63 -7 -72 -15 -53 -45 5 -8 5 -19
1 -25 -13 -16 -22 -95 -12 -95 5 0 13 9 16 20 3 11 11 20 16 20 13 0 11 -34
-3 -48 -9 -9 -9 -15 1 -24 10 -11 16 -8 31 12 11 14 20 35 20 46 0 13 8 24 20
27 17 4 20 0 20 -33 0 -48 21 -67 55 -52 26 12 35 55 15 67 -5 3 -9 23 -9 43
1 97 -9 121 -41 103z m-60 -51 c0 -11 -7 -20 -15 -20 -13 0 -13 3 -3 20 7 11
14 20 15 20 2 0 3 -9 3 -20z m49 8 c0 -7 -4 -22 -9 -33 -7 -17 -9 -15 -9 13
-1 17 4 32 9 32 6 0 10 -6 9 -12z"/>
<path d="M7390 814 c-11 -13 -9 -19 13 -41 22 -22 28 -24 41 -13 19 15 21 41
4 58 -17 17 -43 15 -58 -4z"/>
<path d="M7270 790 c0 -11 4 -20 9 -20 11 0 22 26 14 34 -12 12 -23 5 -23 -14z"/>
<path d="M7264 726 c-4 -9 -2 -27 4 -39 10 -22 10 -21 17 6 9 33 -10 62 -21
33z"/>
<path d="M7241 631 c-22 -14 -3 -31 35 -31 38 0 45 14 15 30 -24 12 -32 12
-50 1z"/>
<path d="M7655 591 c-3 -6 -8 -59 -10 -117 -2 -59 -7 -110 -12 -115 -4 -4 -20
-11 -35 -14 -23 -6 -29 -3 -36 15 -8 21 -8 21 -20 -5 -11 -25 -16 -27 -51 -21
-30 5 -42 2 -56 -14 -15 -16 -15 -22 -5 -35 10 -12 16 -13 28 -3 13 11 15 10
10 -8 -3 -12 -1 -28 3 -37 11 -19 1 -47 -17 -47 -9 0 -14 -12 -14 -35 0 -22
-8 -41 -22 -55 l-22 -20 22 -20 c12 -12 22 -27 22 -35 0 -9 6 -12 17 -8 10 4
14 2 9 -5 -4 -7 11 -11 52 -10 55 1 58 2 54 23 -5 31 14 41 28 14 9 -15 19
-20 36 -16 16 3 24 0 24 -9 0 -11 22 -14 100 -14 57 0 100 4 100 10 0 5 -12
21 -27 35 l-28 26 -26 -31 c-31 -36 -54 -40 -45 -7 3 12 6 28 6 35 0 6 8 12
18 12 27 0 39 12 47 47 5 26 3 33 -9 33 -12 0 -16 10 -16 36 0 30 -4 37 -30
45 -30 11 -39 32 -20 44 6 3 10 22 10 40 0 25 -6 37 -22 46 -20 11 -20 13 -5
24 23 17 21 32 -5 46 -31 16 -31 15 -19 38 22 40 -11 148 -34 112z m-85 -472
c0 -11 -4 -17 -10 -14 -5 3 -10 13 -10 21 0 8 5 14 10 14 6 0 10 -9 10 -21z"/>
<path d="M7410 550 c-9 -17 -8 -20 8 -20 10 0 23 -5 30 -12 9 -9 15 -9 25 1
10 10 7 16 -13 31 -32 25 -37 25 -50 0z"/>
<path d="M7590 534 c0 -14 4 -23 10 -19 6 3 10 15 10 26 0 10 -4 19 -10 19 -5
0 -10 -12 -10 -26z"/>
<path d="M7522 490 c-13 -21 -16 -50 -5 -50 3 0 15 7 25 16 13 13 21 14 31 5
15 -12 27 -5 27 15 0 8 -6 11 -15 7 -9 -3 -24 2 -33 10 -16 15 -19 15 -30 -3z"/>
<path d="M7867 186 c-3 -8 0 -19 7 -26 10 -8 15 -6 20 6 7 17 0 34 -14 34 -4
0 -10 -6 -13 -14z"/>
<path d="M8152 170 c-35 -22 -42 -53 -14 -69 24 -14 -1 -14 -33 1 -19 9 -28 9
-37 0 -7 -7 -21 -12 -32 -12 -12 -1 -32 -7 -46 -15 -23 -13 -16 -14 67 -10 76
4 94 2 108 -11 9 -10 14 -25 12 -36 -5 -16 1 -18 58 -17 l63 2 -23 41 c-13 22
-35 62 -49 88 -14 26 -29 49 -34 52 -5 3 -23 -4 -40 -14z"/>
<path d="M7007 163 c-10 -17 -37 -118 -37 -140 0 -28 29 -31 65 -7 30 20 32
35 5 52 -17 10 -19 19 -14 51 6 35 -7 64 -19 44z"/>
<path d="M7880 45 c0 -19 21 -19 46 0 18 14 17 14 -13 15 -23 0 -33 -5 -33
-15z"/>
<path d="M8038 3 c7 -3 16 -2 19 1 4 3 -2 6 -13 5 -11 0 -14 -3 -6 -6z"/>
</g>
</svg>
